<svg width="60" height="60" viewBox="0 0 60 60" fill="none" xmlns="http://www.w3.org/2000/svg">
<path d="M17.5601 5.77503C19.4384 6.40886 21.2247 7.28814 22.8726 8.39003C25.2014 7.79396 27.5962 7.49492 30.0001 7.50003C32.4826 7.50003 34.8776 7.81003 37.1226 8.38753C38.7698 7.28671 40.5553 6.40828 42.4326 5.77503C44.1751 5.18253 46.6576 4.22253 48.1326 5.85503C49.1326 6.96503 49.3826 8.82503 49.5601 10.245C49.7601 11.83 49.8076 13.895 49.2826 15.945C51.2901 18.5375 52.5001 21.63 52.5001 25C52.5001 30.105 49.7351 34.5375 45.6426 37.6075C43.6721 39.0649 41.4879 40.2084 39.1676 40.9975C39.7026 42.2225 40.0001 43.5775 40.0001 45V52.5C40.0001 53.1631 39.7367 53.799 39.2679 54.2678C38.799 54.7366 38.1631 55 37.5001 55H22.5001C21.837 55 21.2012 54.7366 20.7323 54.2678C20.2635 53.799 20.0001 53.1631 20.0001 52.5V50.0225C17.6126 50.315 15.6101 50.055 13.9076 49.3325C12.1276 48.5775 10.8876 47.4075 9.95509 46.2875C9.07009 45.2275 8.10508 42.8375 6.71008 42.3725C6.39852 42.2688 6.11045 42.1047 5.8623 41.8896C5.61416 41.6745 5.41081 41.4127 5.26386 41.119C4.96708 40.5259 4.91806 39.8393 5.12759 39.21C5.33711 38.5808 5.788 38.0606 6.38109 37.7638C6.97417 37.467 7.66086 37.418 8.29008 37.6275C9.95508 38.1825 11.0401 39.3825 11.7826 40.3475C12.9826 41.8975 13.9576 43.9225 15.8576 44.73C16.6401 45.0625 17.7876 45.28 19.5826 45.035L20.0001 44.95C20.0058 43.5896 20.2891 42.2447 20.8326 40.9975C18.5123 40.2084 16.3281 39.0649 14.3576 37.6075C10.2651 34.5375 7.50008 30.1075 7.50008 25C7.50008 21.635 8.70758 18.545 10.7101 15.955C10.1851 13.905 10.2301 11.835 10.4301 10.2475L10.4426 10.1525C10.6251 8.69753 10.8376 6.98503 11.8576 5.85503C13.3326 4.22253 15.8176 5.18503 17.5576 5.77753L17.5601 5.77503Z" fill="black"/>
</svg>
