<svg width="60" height="60" viewBox="0 0 60 60" fill="none" xmlns="http://www.w3.org/2000/svg">
<path d="M37.7155 38.7211H33.6013L33.2572 38.3775V28.7466C33.2572 27.0328 32.5841 25.7048 30.5179 25.6584C29.4543 25.6303 28.2379 25.6584 26.9375 25.71L26.7425 25.9092V38.3728L26.399 38.7164H22.2843L21.9407 38.3728V21.9206L22.2843 21.577H31.5435C35.1421 21.577 38.0586 24.4927 38.0586 28.0917V38.3775L37.7155 38.7211Z" fill="#014847"/>
<path d="M27.6291 56.2041V43.8619L27.9727 43.5178H32.0963L32.4398 43.8614V56.2041L32.0963 56.5477H27.9731L27.6291 56.2041ZM27.6291 16.4362V4.09406L27.9727 3.75H32.0963L32.4398 4.09359V16.4362L32.0963 16.7798H27.9731L27.6291 16.4362ZM59.6611 32.5542H43.2042L42.8606 32.2106V28.0875L43.2042 27.7439H59.6611L60.0047 28.0875V32.2111L59.6611 32.5542ZM16.8005 32.5542H0.343594L0 32.2106V28.0875L0.343594 27.7439H16.8005L17.1441 28.0875V32.2111L16.8005 32.5542ZM12.8208 15.8513V15.2845L15.6492 12.4566H16.2155L20.5388 16.7798V19.7752L20.1394 20.1745H17.1441L12.8208 15.8513ZM16.2155 47.8364H15.6492L12.8212 45.0084V44.4417L17.1445 40.1189H20.1398L20.5388 40.5178V43.5131L16.2155 47.8364Z" fill="#05BDBA"/>
</svg>
