<svg width="60" height="60" viewBox="0 0 60 60" fill="none" xmlns="http://www.w3.org/2000/svg">
<rect width="60" height="60" fill="#FF6C37"/>
<path d="M37.6681 21.7602L27.797 31.6315L25.0132 28.8479C34.7208 19.1404 35.68 19.9826 37.6681 21.7602Z" fill="#EEEEEE"/>
<path d="M27.7972 31.8652C27.7269 31.8652 27.6802 31.8419 27.6333 31.7951L24.8263 29.0115C24.8041 28.9904 24.7864 28.965 24.7744 28.9368C24.7623 28.9087 24.7561 28.8784 24.7561 28.8478C24.7561 28.8172 24.7623 28.7869 24.7744 28.7588C24.7864 28.7306 24.8041 28.7052 24.8263 28.6841C34.6976 18.8126 35.7267 19.7484 37.8087 21.6197C37.8556 21.6666 37.8788 21.7134 37.8788 21.7835C37.8788 21.8539 37.8556 21.9005 37.8087 21.947L27.9374 31.7951C27.9142 31.8419 27.8438 31.8652 27.7972 31.8652ZM25.3409 28.8478L27.7972 31.3039L37.3175 21.7835C35.5866 20.2396 34.4169 19.7718 25.3409 28.8478Z" fill="#FF6C37"/>
<path d="M30.6273 34.4619L27.9373 31.7718L37.8085 21.9008C40.4519 24.5672 36.4986 28.8947 30.6273 34.4619Z" fill="#EEEEEE"/>
<path d="M30.6274 34.6959C30.5571 34.6959 30.5106 34.6724 30.4637 34.6255L27.7737 31.9355C27.7268 31.8888 27.7268 31.842 27.7268 31.7718C27.7268 31.7015 27.7502 31.6548 27.7971 31.608L37.6682 21.7369C37.6894 21.7147 37.7148 21.6971 37.7429 21.6851C37.7711 21.6731 37.8014 21.6669 37.832 21.6669C37.8626 21.6669 37.8929 21.6731 37.921 21.6851C37.9492 21.6971 37.9746 21.7147 37.9958 21.7369C38.2944 22.0132 38.5304 22.3504 38.6878 22.7257C38.8451 23.1009 38.9202 23.5055 38.9081 23.9123C38.8614 26.5086 35.9139 29.8068 30.8145 34.6255C30.7444 34.6724 30.6741 34.6959 30.6274 34.6959ZM28.2649 31.7718C29.7618 33.2921 30.3936 33.9005 30.6274 34.1343C34.5573 30.3918 38.37 26.5554 38.3934 23.9123C38.4168 23.3041 38.1831 22.6959 37.7852 22.2279L28.2649 31.7718Z" fill="#FF6C37"/>
<path d="M25.0601 28.918L27.0484 30.9063C27.0951 30.9532 27.0951 31 27.0484 31.0467C27.0249 31.0702 27.0249 31.0702 27.0017 31.0702L22.8845 31.959C22.6742 31.9825 22.4871 31.842 22.4402 31.6315C22.4167 31.5145 22.4636 31.3977 22.5339 31.3274L24.9197 28.9414C24.9665 28.8946 25.0367 28.8711 25.0601 28.918Z" fill="#EEEEEE"/>
<path d="M22.8145 32.1929C22.4637 32.1929 22.2063 31.9121 22.2063 31.5611C22.2063 31.3976 22.2766 31.2337 22.3936 31.1167L24.7793 28.7308C24.9198 28.6138 25.1071 28.6138 25.2473 28.7308L27.2356 30.7191C27.3758 30.8361 27.3758 31.0466 27.2356 31.1869C27.1887 31.2337 27.142 31.2572 27.0717 31.2806L22.9549 32.1695C22.9081 32.1695 22.8612 32.1929 22.8145 32.1929ZM24.9901 29.1751L22.6977 31.4675C22.6508 31.5144 22.6274 31.5845 22.6743 31.6546C22.6977 31.725 22.7676 31.7484 22.8379 31.725L26.6975 30.8828L24.9901 29.1751Z" fill="#FF6C37"/>
<path d="M42.8846 16.2867C41.3875 14.8365 38.9781 14.8832 37.5277 16.4037C36.0775 17.924 36.1244 20.31 37.6447 21.7603C38.2449 22.3404 39.0201 22.7054 39.8496 22.7985C40.679 22.8916 41.5159 22.7075 42.2297 22.275L39.5629 19.6082L42.8846 16.2867Z" fill="#EEEEEE"/>
<path d="M40.2647 23.0469C38.0426 23.0469 36.2415 21.2457 36.2415 19.0234C36.2415 16.8012 38.0426 15 40.2647 15C41.294 15 42.2999 15.3977 43.0483 16.1229C43.0952 16.1697 43.1186 16.2166 43.1186 16.2865C43.1186 16.3568 43.0952 16.4037 43.0483 16.4504L39.8905 19.6082L42.37 22.0877C42.4637 22.1814 42.4637 22.3217 42.37 22.4152L42.3233 22.4621C41.7151 22.8361 40.9899 23.0469 40.2647 23.0469ZM40.2647 15.4914C38.2999 15.4914 36.7092 17.0818 36.7327 19.0469C36.7327 21.0117 38.3231 22.6023 40.2881 22.5791C40.8262 22.5791 41.3641 22.4619 41.8553 22.2047L39.3993 19.7721C39.3524 19.7252 39.3292 19.6783 39.3292 19.6082C39.3292 19.5379 39.3524 19.4912 39.3993 19.4445L42.5338 16.31C41.9022 15.7721 41.1069 15.4914 40.2647 15.4914Z" fill="#FF6C37"/>
<path d="M42.9548 16.3568L42.9081 16.3099L39.563 19.6082L42.2063 22.2515C42.4638 22.0877 42.7208 21.9008 42.9315 21.6902C43.2859 21.3431 43.5679 20.929 43.7611 20.4721C43.9543 20.0152 44.0549 19.5245 44.0571 19.0284C44.0592 18.5323 43.9629 18.0407 43.7737 17.5821C43.5845 17.1235 43.3061 16.707 42.9548 16.3568Z" fill="#EEEEEE"/>
<path d="M42.2297 22.5088C42.1594 22.5088 42.1127 22.4854 42.0658 22.4385L39.3992 19.7719C39.3523 19.725 39.3291 19.6783 39.3291 19.6082C39.3291 19.5379 39.3523 19.491 39.3992 19.4443L42.7207 16.123C42.8145 16.0293 42.9547 16.0293 43.0482 16.123L43.1186 16.1699C44.6857 17.7369 44.6857 20.2633 43.142 21.8541C42.908 22.0879 42.6506 22.2984 42.3699 22.4621C42.2998 22.4855 42.2531 22.5088 42.2297 22.5088ZM39.8904 19.6084L42.2531 21.9709C42.4402 21.8541 42.6273 21.6902 42.7676 21.5498C44.101 20.2164 44.1711 18.0412 42.8846 16.6377L39.8904 19.6084Z" fill="#FF6C37"/>
<path d="M38.0661 22.181C37.796 21.9114 37.4301 21.76 37.0485 21.76C36.6669 21.76 36.3009 21.9114 36.0309 22.181L27.2122 30.9998L28.686 32.4734L38.0192 24.2865C38.6274 23.7716 38.6741 22.8593 38.1596 22.2513C38.1127 22.2279 38.0893 22.2045 38.0661 22.181Z" fill="#EEEEEE"/>
<path d="M28.6626 32.7074C28.5925 32.7074 28.5456 32.684 28.4987 32.6373L27.0251 31.1637C27.003 31.1425 26.9853 31.1171 26.9733 31.089C26.9613 31.0608 26.9551 31.0305 26.9551 30.9999C26.9551 30.9693 26.9613 30.939 26.9733 30.9109C26.9853 30.8827 27.003 30.8573 27.0251 30.8361L35.8436 22.0174C35.9985 21.8617 36.1825 21.7381 36.3853 21.6538C36.588 21.5695 36.8054 21.5261 37.025 21.5261C37.2446 21.5261 37.462 21.5695 37.6647 21.6538C37.8674 21.7381 38.0515 21.8617 38.2063 22.0174C38.362 22.1722 38.4856 22.3563 38.5699 22.559C38.6542 22.7618 38.6976 22.9792 38.6976 23.1987C38.6976 23.4183 38.6542 23.6357 38.5699 23.8385C38.4856 24.0412 38.362 24.2253 38.2063 24.3801L38.1362 24.4502L28.8028 32.6373C28.7795 32.6841 28.7328 32.7074 28.6626 32.7074ZM27.5397 30.9998L28.686 32.1461L37.8556 24.0992C38.37 23.6781 38.4169 22.9063 37.9958 22.3918C37.5747 21.8774 36.8028 21.8305 36.2882 22.2512C36.2649 22.2746 36.2415 22.2981 36.1946 22.3215L27.5397 30.9998Z" fill="#FF6C37"/>
<path d="M20.452 41.0352C20.3582 41.0819 20.3115 41.1754 20.3348 41.269L20.7326 42.9534C20.8264 43.1872 20.6857 43.468 20.4285 43.5381C20.2414 43.6083 20.0311 43.5381 19.9141 43.3979L17.3408 40.8481L25.7385 32.4504L28.6391 32.4971L30.6039 34.4622C30.1361 34.8598 27.3057 37.5965 20.452 41.0352Z" fill="#EEEEEE"/>
<path d="M20.2649 43.7717C20.0778 43.7717 19.8907 43.7015 19.7737 43.5613L17.2239 41.0115C17.1771 40.9648 17.1538 40.9179 17.1538 40.8478C17.1538 40.7777 17.1772 40.7308 17.2241 40.684L25.6216 32.2865C25.6685 32.2396 25.7386 32.2162 25.7854 32.2162L28.686 32.2631C28.7562 32.2631 28.8028 32.2865 28.8495 32.3332L30.8146 34.298C30.8614 34.3449 30.8847 34.415 30.8847 34.4851C30.8847 34.5554 30.8614 34.6021 30.7911 34.649L30.6274 34.7894C28.1479 36.9646 24.7794 39.1402 20.5923 41.222L20.9901 42.8828C21.0603 43.1869 20.9198 43.5144 20.6392 43.6781C20.4987 43.7482 20.3819 43.7717 20.2649 43.7717ZM17.6917 40.8478L20.1013 43.2338C20.1712 43.3508 20.3116 43.3974 20.4286 43.3273C20.5456 43.2572 20.5925 43.1168 20.5224 42.9998L20.1247 41.3156C20.0778 41.1051 20.1712 40.9179 20.3585 40.8244C24.4987 38.7426 27.8438 36.5906 30.2999 34.4619L28.569 32.7308L25.879 32.684L17.6917 40.8478Z" fill="#FF6C37"/>
<path d="M15.3525 42.8596L17.3642 40.8479L20.3583 43.842L15.5864 43.5147C15.3759 43.4913 15.2355 43.3041 15.2589 43.0934C15.2589 42.9999 15.2821 42.9063 15.3525 42.8596Z" fill="#EEEEEE"/>
<path d="M20.3584 44.0526L15.5631 43.7251C15.2122 43.7016 14.9782 43.3977 15.0016 43.0467C15.0251 42.9063 15.0719 42.7661 15.1889 42.6725L17.2006 40.6608C17.2217 40.6386 17.2471 40.621 17.2753 40.6089C17.3034 40.5969 17.3337 40.5906 17.3643 40.5906C17.3949 40.5906 17.4252 40.5969 17.4533 40.6089C17.4815 40.621 17.5069 40.6386 17.528 40.6608L20.5221 43.6549C20.5924 43.7251 20.6159 43.8186 20.569 43.9124C20.5221 44.0058 20.4519 44.0526 20.3584 44.0526ZM17.3643 41.1754L15.5165 43.0233C15.4461 43.0702 15.4461 43.1872 15.5165 43.2338C15.5399 43.2573 15.5633 43.2807 15.61 43.2807L19.7502 43.5614L17.3643 41.1754ZM24.9198 33.5264C24.7793 33.5264 24.6858 33.4094 24.6858 33.2924C24.6858 33.2223 24.7092 33.1756 24.7561 33.1288L27.0251 30.8598C27.0462 30.8376 27.0716 30.8199 27.0997 30.8079C27.1279 30.7958 27.1582 30.7896 27.1888 30.7896C27.2195 30.7896 27.2498 30.7958 27.2779 30.8079C27.3061 30.8199 27.3315 30.8376 27.3526 30.8598L28.8262 32.3335C28.8963 32.4036 28.9198 32.4737 28.8963 32.5674C28.8729 32.6376 28.8028 32.7077 28.7094 32.7311L24.9667 33.5264H24.9198ZM27.1887 31.351L25.645 32.895L28.1711 32.3567L27.1887 31.351Z" fill="#FF6C37"/>
<path d="M28.6391 32.4968L26.066 33.0584C25.8789 33.1052 25.6916 32.9882 25.6449 32.8011C25.6215 32.6841 25.6449 32.5671 25.7385 32.4736L27.1652 31.0466L28.6391 32.4968Z" fill="#EEEEEE"/>
<path d="M26.0191 33.2924C25.9421 33.2932 25.8657 33.2786 25.7944 33.2495C25.7231 33.2204 25.6583 33.1773 25.6039 33.1229C25.5494 33.0684 25.5064 33.0036 25.4773 32.9323C25.4482 32.861 25.4336 32.7846 25.4344 32.7076C25.4344 32.544 25.5045 32.4035 25.598 32.2867L27.025 30.8598C27.0461 30.8376 27.0715 30.8199 27.0996 30.8078C27.1278 30.7957 27.1581 30.7895 27.1888 30.7895C27.2194 30.7895 27.2497 30.7957 27.2779 30.8078C27.306 30.8199 27.3314 30.8376 27.3525 30.8598L28.8262 32.3334C28.8963 32.4035 28.9197 32.4736 28.8963 32.5674C28.8728 32.6375 28.8027 32.7076 28.7094 32.7311L26.1361 33.2924H26.0191ZM27.1887 31.351L25.9256 32.6141C25.8789 32.6609 25.8789 32.7076 25.9021 32.7545C25.9256 32.8012 25.9724 32.8246 26.0426 32.8246L28.1945 32.3566L27.1887 31.351ZM42.9781 18.6022C42.9314 18.4619 42.7676 18.3918 42.6271 18.4387C42.4869 18.4852 42.4168 18.649 42.4637 18.7895C42.4637 18.8129 42.4869 18.8363 42.4869 18.8596C42.6271 19.1404 42.5806 19.4912 42.3933 19.7484C42.2998 19.8656 42.3232 20.0293 42.4168 20.1229C42.5338 20.2162 42.6974 20.1932 42.791 20.076C43.142 19.6315 43.2121 19.0701 42.9781 18.6022Z" fill="#FF6C37"/>
</svg>
