<svg width="50" height="29" viewBox="0 0 50 29" fill="none" xmlns="http://www.w3.org/2000/svg">
<path d="M50 28.2194C49.2723 28.4941 48.4691 28.4932 47.742 28.2171C47.0148 27.9409 46.4138 27.4085 46.0521 26.7201L38.8646 16.785L37.8229 15.396L29.4833 26.7326C29.1437 27.3924 28.5753 27.906 27.8844 28.1773C27.1935 28.4487 26.4273 28.4592 25.7292 28.2069L36.475 13.7967L26.4792 0.779653C27.1979 0.520759 27.984 0.517327 28.7049 0.769934C29.4259 1.02254 30.0378 1.51576 30.4375 2.16653L37.8875 12.2245L45.3792 2.20818C45.7214 1.56011 46.29 1.06034 46.9767 0.803869C47.6635 0.547402 48.4206 0.552124 49.1042 0.817137L45.225 5.96274L39.9708 12.7993C39.8249 12.9294 39.7082 13.0888 39.6282 13.2672C39.5483 13.4455 39.507 13.6388 39.507 13.8342C39.507 14.0296 39.5483 14.2229 39.6282 14.4012C39.7082 14.5796 39.8249 14.7391 39.9708 14.8692L49.9792 28.2215L50 28.2194ZM0.00419397 13.6176L0.879193 9.29666C3.28336 0.752584 13.0834 -2.80207 19.825 2.48722C23.7729 5.58791 24.7583 9.97761 24.5646 14.9254H2.32503C1.96461 23.761 8.34377 29.0961 16.5 26.3702C17.822 25.8942 19.0054 25.098 19.9441 24.0528C20.8828 23.0077 21.5477 21.7462 21.8792 20.3813C22.3104 18.9944 23.0208 18.757 24.325 19.1568C24.1072 20.8484 23.5088 22.4686 22.5746 23.8958C21.6404 25.323 20.3947 26.52 18.9313 27.3969C16.5136 28.7195 13.7393 29.2438 11.0054 28.8948C8.27145 28.5458 5.71803 27.3414 3.71044 25.454C1.72574 23.22 0.525938 20.3988 0.293777 17.4201C0.293777 16.9307 0.127111 16.4726 0.0146106 16.0332C0.00444923 15.2288 -0.000411984 14.4242 2.73052e-05 13.6197L0.00419397 13.6176ZM2.35211 13.0221H22.4646C22.3396 6.61661 18.2958 2.07282 12.9021 2.03118C6.89794 1.94788 2.60211 6.39172 2.33753 12.9929L2.35211 13.0221Z" fill="black"/>
</svg>
