<svg width="60" height="60" viewBox="0 0 60 60" fill="none" xmlns="http://www.w3.org/2000/svg">
<path d="M0 42.8029H1.98844V34.9528L5.06625 41.7956C5.42859 42.6253 5.925 42.9164 6.90094 42.9164C7.87688 42.9164 8.35313 42.6253 8.71547 41.7956L11.7933 34.9528V42.8025H13.7817V34.9659C13.7817 34.2004 13.4761 33.8306 12.8442 33.6403C11.3334 33.1696 10.3209 33.576 9.86156 34.596L6.84234 41.3507L3.91828 34.596C3.47906 33.576 2.44641 33.1696 0.9375 33.6403C0.305625 33.8306 0 34.2004 0 34.9659L0 42.8029ZM15.4359 36.4125H17.4225V40.7376C17.4042 40.972 17.4975 41.5232 18.5869 41.5415H22.9102V36.3904H24.9023C24.9117 36.3904 24.8986 43.4142 24.8986 43.4437C24.9094 45.1757 22.7508 45.5512 21.7547 45.5807H15.4781V44.2439L21.7659 44.242C23.0456 44.1084 22.8938 43.4709 22.8938 43.2585V42.7368H18.6694C16.703 42.7185 15.4523 41.8598 15.4359 40.8726C15.4341 40.7831 15.4781 36.4565 15.4359 36.4125Z" fill="#00618A"/>
<path d="M26.4333 42.803H32.1498C32.8182 42.803 33.4684 42.6619 33.9844 42.4205C34.8451 42.0267 35.2641 41.4905 35.2641 40.7892V39.337C35.2641 38.7638 34.7879 38.2275 33.8504 37.8722C33.354 37.68 32.7408 37.5792 32.1493 37.5792H29.7394C28.9374 37.5792 28.5549 37.3374 28.4598 36.803C28.4415 36.7388 28.4415 36.6877 28.4415 36.6234V35.7188C28.4415 35.6677 28.4415 35.6161 28.4598 35.5524C28.5549 35.1459 28.7654 35.0306 29.4723 34.9664L29.6644 34.9538H35.3405V33.63H29.7601C28.958 33.63 28.5371 33.6811 28.1541 33.795C26.9696 34.1649 26.453 34.7508 26.453 35.7708V36.93C26.453 37.8216 27.4655 38.587 29.1666 38.7647L29.7399 38.7905H31.8052C31.8821 38.7905 31.9571 38.7905 32.0157 38.8031C32.6457 38.8542 32.9129 38.9695 33.1051 39.1988C33.204 39.2902 33.2607 39.4205 33.2569 39.5541V40.7152C33.2569 40.8544 33.1618 41.0339 32.9715 41.1858C32.7994 41.3395 32.5121 41.4403 32.131 41.4661L31.9205 41.4788H26.4333V42.803ZM47.6663 40.4958C47.6663 41.8599 48.6807 42.6234 50.724 42.7772L51.2991 42.803H56.4793V41.4774H51.2607C50.0944 41.4774 49.6548 41.1844 49.6548 40.4831V33.6272H47.6682V40.4953L47.6663 40.4958ZM36.5335 40.5652V35.8392C36.5335 34.6397 37.3777 33.9113 39.0437 33.682C39.2214 33.6564 39.4008 33.6435 39.5804 33.6436H43.3524C43.5446 33.6436 43.7166 33.6563 43.9093 33.682C45.5757 33.9108 46.418 34.6397 46.418 35.8392V40.5652C46.418 41.5392 46.0608 42.0595 45.2354 42.3999L47.1948 44.167H44.8857L43.3018 42.7369L41.7071 42.8377H39.5813C39.1862 42.8364 38.7932 42.7809 38.4132 42.6727C37.148 42.3286 36.5344 41.6639 36.5344 40.5652H36.5335ZM38.6794 40.4499C38.6794 40.5141 38.6977 40.5778 38.7179 40.6552C38.8332 41.2045 39.3498 41.5102 40.1349 41.5102H41.9405L40.2816 40.0125H42.5907L44.0373 41.3199C44.3044 41.1769 44.4783 40.9608 44.5407 40.6809C44.559 40.6167 44.559 40.553 44.559 40.4888V35.9569C44.559 35.9058 44.559 35.8416 44.5407 35.7774C44.4254 35.2664 43.9088 34.9734 43.1419 34.9734H40.1354C39.2546 34.9734 38.6799 35.3559 38.6799 35.9569L38.6794 40.4499Z" fill="#E48E00"/>
<path d="M58.2276 31.4283C57.0065 31.3955 56.0723 31.5089 55.274 31.846C55.0472 31.9411 54.6844 31.943 54.6478 32.2271C54.7725 32.3588 54.7926 32.5547 54.8915 32.7141C55.0819 33.0235 55.4044 33.4355 55.6917 33.6516L56.6639 34.3472C57.2606 34.7114 57.929 34.9205 58.5061 35.2847C58.845 35.5008 59.1815 35.7717 59.513 36.0155C59.6761 36.1346 59.7858 36.323 60 36.398V36.3633C59.8884 36.2203 59.8589 36.0244 59.7562 35.8763L59.3039 35.4239C58.8628 34.838 58.3022 34.3233 57.7055 33.8949C57.2292 33.5541 56.1675 33.0928 55.9678 32.5397L55.9331 32.505C56.2701 32.4685 56.6658 32.3456 56.9751 32.2631C57.4987 32.1221 57.9656 32.1586 58.5042 32.0194L59.235 31.8089V31.6716C58.9622 31.3913 58.7681 31.0214 58.4695 30.7669C57.6933 30.106 56.8434 29.4431 55.9683 28.89C55.4831 28.5844 54.8845 28.3866 54.3698 28.1264C54.1978 28.0388 53.8936 27.9947 53.7783 27.848C53.5092 27.5039 53.3625 27.068 53.1539 26.6667L51.9033 24.0263C51.6398 23.4239 51.4673 22.8286 51.1378 22.2886C49.5614 19.6941 47.8622 18.1285 45.2306 16.5905C44.6723 16.2628 43.9964 16.1344 43.2862 15.9661L42.1383 15.8967C41.9058 15.7978 41.6639 15.5124 41.4445 15.375C40.5731 14.8238 38.3372 13.6266 37.6908 15.2011C37.2844 16.1953 38.3006 17.1656 38.6648 17.6696C38.9194 18.023 39.247 18.4186 39.4284 18.8156C39.5494 19.0758 39.5695 19.3374 39.6722 19.6139C39.9248 20.295 40.1447 21.0347 40.4723 21.6647C40.6373 21.9835 40.8183 22.3186 41.0273 22.6022C41.1553 22.7761 41.3751 22.8549 41.4098 23.1239C41.1956 23.4244 41.1829 23.8894 41.062 24.27C40.5183 25.9819 40.7231 28.1096 41.5144 29.3785C41.7562 29.7666 42.3272 30.6014 43.1128 30.2813C43.7995 30.001 43.6458 29.1352 43.8417 28.3697C43.8876 28.1977 43.86 28.0692 43.9462 27.9539V27.9886L44.5725 29.2392C45.0356 29.9846 45.8559 30.7627 46.552 31.2881C46.9144 31.561 47.1984 32.0335 47.6653 32.1928V32.1563H47.6306C47.5392 32.0171 47.3981 31.9585 47.2828 31.845C47.01 31.5778 46.7076 31.2464 46.4845 30.9403C45.8508 30.0816 45.2906 29.1403 44.7815 28.1606C44.5378 27.6938 44.3255 27.1772 44.1206 26.7014C44.0419 26.5181 44.0437 26.2402 43.8787 26.1464C43.6537 26.4942 43.3223 26.7764 43.148 27.1885C42.8695 27.8456 42.8348 28.6496 42.7303 29.4811L42.6609 29.5158C42.1776 29.3986 42.007 28.9008 41.828 28.4738C41.3719 27.3933 41.2879 25.6519 41.6887 24.4088C41.7914 24.0867 42.2601 23.0719 42.0698 22.7756C41.9803 22.4789 41.6817 22.3069 41.5148 22.08C41.2967 21.7758 41.1102 21.45 40.9584 21.1078C40.5867 20.2636 40.4128 19.3191 40.0209 18.4674C39.8344 18.0591 39.5175 17.6471 39.2573 17.2847C38.9681 16.8839 38.6456 16.5891 38.4225 16.1035C38.3437 15.9314 38.2359 15.6549 38.3531 15.4772C38.3897 15.3581 38.4445 15.3089 38.5617 15.2705C38.7633 15.1149 39.3253 15.3216 39.5339 15.4078C40.0922 15.6403 40.5576 15.8602 41.0297 16.1733C41.2547 16.3233 41.4839 16.6144 41.7586 16.695H42.0717C42.5606 16.8066 43.1081 16.7278 43.5661 16.8671C44.3737 17.1122 45.0989 17.4952 45.7542 17.911C47.7572 19.1742 49.3945 20.9742 50.5148 23.1221C50.6962 23.468 50.7731 23.7975 50.9325 24.1641C51.2531 24.9038 51.6558 25.6655 51.9745 26.3888C52.2933 27.1121 52.6026 27.8391 53.0512 28.4396C53.2875 28.7546 54.2011 28.9228 54.615 29.0986C54.9061 29.2214 55.3823 29.3494 55.657 29.5163C56.1844 29.8331 56.6934 30.21 57.188 30.5583C57.4331 30.7341 58.1915 31.1152 58.23 31.4278L58.2276 31.4283ZM42.6947 18.1899C42.4844 18.1865 42.2746 18.2098 42.0703 18.2592V18.2939H42.105C42.2259 18.5447 42.4401 18.706 42.5901 18.9202L42.9379 19.6491L42.9726 19.6163C43.1887 19.4644 43.2858 19.2206 43.2858 18.8508C43.1981 18.7594 43.1869 18.646 43.1119 18.5377C43.0129 18.3928 42.8212 18.3127 42.6947 18.1899Z" fill="#00618A"/>
</svg>
