<svg width="44" height="50" viewBox="0 0 44 50" fill="none" xmlns="http://www.w3.org/2000/svg">
<path d="M20.8044 0.319436C21.1668 0.110236 21.5788 0 21.9984 0C22.418 0 22.8301 0.110236 23.1925 0.319436L42.8217 11.6472C43.18 11.8533 43.4774 12.1488 43.6841 12.5041C43.8909 12.8594 43.9998 13.2622 44 13.6722V36.3278C43.9998 36.7378 43.8909 37.1406 43.6841 37.4959C43.4774 37.8512 43.18 38.1467 42.8217 38.3527L23.1925 49.6806C22.8301 49.8898 22.418 50 21.9984 50C21.5788 50 21.1668 49.8898 20.8044 49.6806L15.8986 46.8494C15.3557 46.5361 14.9609 46.0223 14.8009 45.421C14.641 44.8198 14.729 44.1803 15.0457 43.6432C15.3624 43.1062 15.8818 42.7156 16.4896 42.5573C17.0974 42.3991 17.7439 42.4862 18.2867 42.7995L21.9984 44.9432L39.2617 34.981V15.019L21.9984 5.0568L4.73832 15.019V34.981L8.26678 37.0184C9.35344 37.3621 10.6991 37.4465 11.6436 37.034C12.1381 36.8198 12.5437 36.445 12.7935 35.9716C13.122 35.3841 13.4252 34.406 13.4252 32.8123V16.4065C13.4252 15.7849 13.6748 15.1888 14.1191 14.7493C14.5634 14.3097 15.166 14.0628 15.7944 14.0628C16.4227 14.0628 17.0253 14.3097 17.4696 14.7493C17.9139 15.1888 18.1635 15.7849 18.1635 16.4065V32.8123C18.1635 34.9726 17.7529 36.7851 16.9316 38.2496C16.1809 39.6141 14.9946 40.6943 13.5579 41.3214C11.0118 42.4339 8.19729 41.9776 6.4757 41.3652C6.3411 41.3137 6.21023 41.2531 6.084 41.1839L1.1751 38.3527C0.817412 38.1463 0.520683 37.8506 0.314498 37.4953C0.108314 37.14 -0.000122613 36.7375 1.04043e-07 36.3278V13.6722C-0.000122613 13.2625 0.108314 12.8599 0.314498 12.5046C0.520683 12.1494 0.817412 11.8537 1.1751 11.6472L20.8044 0.319436ZM22.8892 16.5096C24.1433 15.0347 26.1018 14.0628 28.7584 14.0628C31.2223 14.0628 33.1019 14.9003 34.3749 16.2284C34.5963 16.4505 34.7706 16.7142 34.8876 17.0038C35.0046 17.2935 35.062 17.6033 35.0564 17.9152C35.0508 18.2271 34.9823 18.5347 34.855 18.8201C34.7276 19.1055 34.544 19.3628 34.3148 19.5771C34.0856 19.7913 33.8155 19.9581 33.5203 20.0678C33.2251 20.1774 32.9107 20.2276 32.5956 20.2155C32.2805 20.2034 31.9711 20.1292 31.6854 19.9972C31.3996 19.8653 31.1434 19.6782 30.9317 19.447C30.6506 19.1627 30.0725 18.7502 28.7553 18.7502C27.359 18.7502 26.7841 19.2127 26.5156 19.5252C26.2384 19.8586 26.0777 20.2719 26.0576 20.7032C26.0576 20.9626 26.1713 21.4751 26.5156 21.8813C26.7841 22.1938 27.359 22.6563 28.7584 22.6563C28.9849 22.6577 29.2101 22.6893 29.4281 22.7501C31.3866 23.0313 32.8776 23.9 33.9011 25.1031C35.0762 26.4875 35.4679 28.1249 35.4679 29.2968C35.4679 30.4686 35.0762 32.106 33.9011 33.4904C32.647 34.9653 30.6885 35.9372 28.0319 35.9372C25.5679 35.9372 23.6884 35.0997 22.4186 33.7716C22.0025 33.3173 21.783 32.7198 21.8071 32.1072C21.8311 31.4946 22.0968 30.9158 22.5473 30.4948C22.9977 30.0737 23.5969 29.844 24.2165 29.8549C24.8361 29.8658 25.4267 30.1164 25.8617 30.553C26.1366 30.8405 26.7178 31.2498 28.0319 31.2498C29.4281 31.2498 30.0062 30.7873 30.2747 30.4748C30.5508 30.141 30.7103 29.7277 30.7296 29.2968C30.7094 28.8654 30.5487 28.4522 30.2715 28.1187C30.0062 27.8062 29.4281 27.3437 28.0319 27.3437C27.8043 27.3425 27.578 27.311 27.359 27.2499C25.4005 26.9687 23.9095 26.1 22.8892 24.8969C21.8949 23.7186 21.3406 22.2379 21.3193 20.7032C21.3193 19.5314 21.711 17.8939 22.8892 16.5096Z" fill="black"/>
</svg>
