<svg width="60" height="60" viewBox="0 0 60 60" fill="none" xmlns="http://www.w3.org/2000/svg">
<path d="M12.3276 23.65H8.98506L7.16006 33.0275H10.1276C12.0959 33.0275 13.5626 32.6567 14.5276 31.915C15.4892 31.1734 16.1384 29.935 16.4751 28.2C16.7984 26.535 16.6517 25.36 16.0351 24.675C15.4184 23.99 14.1826 23.6484 12.3276 23.65ZM18.4526 34.0325C17.5301 34.9175 16.4176 35.5825 15.2076 35.9825C14.0159 36.3692 12.4992 36.5634 10.6576 36.565H6.47006L5.31256 42.52H0.435059L4.79006 20.115H14.1751C16.9984 20.115 19.0576 20.8567 20.3526 22.34C21.6492 23.82 22.0392 25.8884 21.5226 28.545C21.3253 29.5964 20.9607 30.6092 20.4426 31.545C19.9172 32.475 19.2437 33.3148 18.4526 34.0325ZM32.7076 36.565L34.6326 26.6525C34.8526 25.5242 34.7717 24.7559 34.3901 24.3475C34.0117 23.9359 33.2009 23.73 31.9576 23.73H28.0901L25.5976 36.57H20.7501L25.1051 14.16H29.9476L28.7901 20.1175H33.1026C35.8192 20.1175 37.6917 20.5909 38.7201 21.5375C39.7484 22.4842 40.0592 24.0175 39.6526 26.1375L37.6276 36.565H32.7076ZM59.6151 28.545C59.4201 29.595 59.0551 30.6075 58.5351 31.545C58.0097 32.475 57.3387 33.3148 56.5476 34.0325C55.6226 34.915 54.5126 35.5825 53.3001 35.9825C52.1084 36.3692 50.5901 36.5634 48.7451 36.565H44.5676L43.4076 42.5225H38.5251L42.8826 20.1175H52.2626C55.0859 20.1175 57.1451 20.8592 58.4401 22.3425C59.7367 23.8192 60.1276 25.8859 59.6126 28.5425M50.4226 23.65H47.0826L45.2551 33.0275H48.2226C50.1942 33.0275 51.6609 32.6567 52.6226 31.915C53.5842 31.1734 54.2342 29.935 54.5726 28.2C54.8959 26.535 54.7484 25.36 54.1301 24.675C53.5117 23.99 52.2759 23.6484 50.4226 23.65Z" fill="black"/>
</svg>
