<svg width="29" height="39" viewBox="0 0 29 39" fill="none" xmlns="http://www.w3.org/2000/svg">
<g clip-path="url(#clip0_137_2)">
<path fill-rule="evenodd" clip-rule="evenodd" d="M1.70058 0C0.761376 0 0 0.761376 0 1.70058V16.439H21.9942C22.9334 16.439 23.6948 15.6775 23.6948 14.7384V1.70058C23.6948 0.761376 22.9334 0 21.9942 0H1.70058ZM16.6657 3.74128H6.80233V12.0174H16.6657V3.74128Z" fill="#111110"/>
<path d="M0 34.9186H6.80233V15.8721H0V34.9186Z" fill="#111110"/>
<path d="M9.06982 18.8198H14.7348L26.5291 39H21.4214L9.06982 18.8198Z" fill="#111110"/>
<path d="M12.5231 28.9099L12.1092 33.2156L15.9158 34.9714H9.06982L12.5231 28.9099Z" fill="#996D6D" fill-opacity="0.75"/>
<path d="M21.1367 25.0484L25.0597 26.8711L24.6471 31.0426L28.1124 25.1384L21.1367 25.0484Z" fill="#996D6D" fill-opacity="0.75"/>
</g>
<defs>
<clipPath id="clip0_137_2">
<rect width="28.1163" height="39" fill="white"/>
</clipPath>
</defs>
</svg>
