<svg width="50" height="50" viewBox="0 0 50 50" fill="none" xmlns="http://www.w3.org/2000/svg">
<path d="M42.6938 14.0104C43.2271 13.3146 44.0521 12.9062 44.9292 12.9062H45.6375L36.4875 24.8708L45.8333 37.0896H45.125C44.6926 37.0898 44.266 36.9902 43.8783 36.7987C43.4906 36.6072 43.1522 36.3289 42.8896 35.9854L35.4396 26.2437L27.9875 35.9854C27.7251 36.3286 27.3871 36.6068 26.9998 36.7983C26.6125 36.9898 26.1862 37.0894 25.7542 37.0896H25.0458L34.3896 24.8708L25.2417 12.9062H25.95C26.825 12.9062 27.6521 13.3146 28.1833 14.0104L35.4375 23.4979L42.6938 14.0104Z" fill="white"/>
<path fill-rule="evenodd" clip-rule="evenodd" d="M11.5896 35.7208C15.5979 37.1833 19.7896 35.525 21.9209 32.2896C22.3375 31.6542 23.025 31.2521 23.7875 31.2521H24.3188C22.3604 36.3292 16.5688 39.2854 11.0625 37.3042C6.84794 35.7875 4.16669 31.6229 4.16669 27.1437V22.5C4.16852 21.0468 4.47379 19.61 5.06293 18.2816C5.65208 16.9532 6.51212 15.7625 7.588 14.7857C8.66387 13.8088 9.93187 13.0674 11.3108 12.6089C12.6898 12.1504 14.1493 11.9848 15.5959 12.1229C20.9979 12.6292 25.0146 17.3792 25.0146 22.8042V26.25H5.83544V27.175C5.83544 30.9291 8.06252 34.4354 11.5896 35.7208ZM14.5896 13.7417C12.2692 13.7461 10.0451 14.6698 8.40434 16.3106C6.76357 17.9513 5.83984 20.1754 5.83544 22.4958V24.5833H23.3479V22.5C23.3446 20.1785 22.4211 17.953 20.7798 16.3113C19.1384 14.6696 16.9132 13.7455 14.5917 13.7417" fill="white"/>
</svg>
