<svg width="50" height="50" viewBox="0 0 50 50" fill="none" xmlns="http://www.w3.org/2000/svg">
<path fill-rule="evenodd" clip-rule="evenodd" d="M49.0583 22.7773L27.2251 0.940497C26.6206 0.338188 25.8021 0 24.9487 0C24.0954 0 23.2769 0.338188 22.6724 0.940497L18.1398 5.47837L23.89 11.2289C24.568 10.9989 25.2969 10.9639 25.9938 11.1277C26.6907 11.2916 27.3277 11.6477 27.8322 12.1557C28.3368 12.6636 28.6886 13.303 28.8478 14.001C29.007 14.6991 28.9671 15.4278 28.7326 16.1043L34.2753 21.6472C35.1036 21.3625 36.0044 21.3703 36.8276 21.6692C37.6508 21.9682 38.3468 22.5402 38.7994 23.2901C39.252 24.0399 39.4339 24.9222 39.3149 25.79C39.1959 26.6577 38.7831 27.4585 38.1454 28.0588C37.5076 28.6591 36.6834 29.0226 35.81 29.0889C34.9367 29.1551 34.0671 28.9201 33.3461 28.4229C32.625 27.9256 32.0962 27.1963 31.8477 26.3565C31.5991 25.5166 31.6459 24.6169 31.9802 23.8074L26.8101 18.637V32.2406C27.5956 32.6293 28.2242 33.2756 28.5911 34.0716C28.9579 34.8677 29.0409 35.7654 28.8261 36.6152C28.6113 37.465 28.1117 38.2155 27.4107 38.7416C26.7096 39.2676 25.8494 39.5375 24.9735 39.5063C24.0976 39.475 23.2589 39.1444 22.5971 38.5696C21.9354 37.9949 21.4907 37.2107 21.337 36.3477C21.1834 35.4848 21.3302 34.5952 21.7529 33.8274C22.1756 33.0595 22.8487 32.4598 23.66 32.1281V18.4019C23.1917 18.2108 22.7659 17.9287 22.4074 17.5719C22.0489 17.2151 21.7647 16.7907 21.5712 16.3234C21.3778 15.856 21.2789 15.3549 21.2804 14.8491C21.2819 14.3433 21.3837 13.8428 21.5799 13.3765L15.9122 7.70356L0.941697 22.6723C0.338656 23.2769 0 24.096 0 24.95C0 25.804 0.338656 26.6231 0.941697 27.2277L22.7749 49.0595C23.3794 49.6618 24.1979 50 25.0513 50C25.9046 50 26.7231 49.6618 27.3276 49.0595L49.0583 27.3277C49.6613 26.7231 50 25.904 50 25.05C50 24.196 49.6613 23.3769 49.0583 22.7723" fill="white"/>
</svg>
