<svg width="40" height="40" viewBox="0 0 40 40" fill="none" xmlns="http://www.w3.org/2000/svg">
<path d="M20 12.0234C18.4224 12.0234 16.8802 12.4913 15.5685 13.3677C14.2567 14.2442 13.2343 15.49 12.6306 16.9475C12.0269 18.405 11.8689 20.0088 12.1767 21.5562C12.4845 23.1035 13.2442 24.5247 14.3597 25.6403C15.4753 26.7558 16.8966 27.5155 18.4439 27.8233C19.9912 28.1311 21.595 27.9731 23.0525 27.3694C24.51 26.7657 25.7558 25.7433 26.6323 24.4315C27.5087 23.1198 27.9766 21.5776 27.9766 20C27.9739 17.8853 27.1326 15.858 25.6373 14.3627C24.142 12.8674 22.1147 12.0261 20 12.0234Z" fill="white"/>
<path d="M31.4524 19.2734C33.4596 19.2734 35.0867 17.6462 35.0867 15.639C35.0867 13.6318 33.4596 12.0046 31.4524 12.0046C29.4452 12.0046 27.818 13.6318 27.818 15.639C27.818 17.6462 29.4452 19.2734 31.4524 19.2734Z" fill="white"/>
<path d="M35.9266 12.75L35.7742 12.4157L35.5312 12.6907C34.936 13.3666 34.1829 13.8851 33.3391 14.2L33.1047 14.286L33.2 14.5149C33.9264 16.2522 34.2993 18.1169 34.2969 20C34.2969 27.8844 27.8828 34.2969 20 34.2969C12.1172 34.2969 5.70312 27.8844 5.70312 20C5.70312 12.1157 12.1156 5.70316 20 5.70316C22.1203 5.69873 24.2145 6.17134 26.1273 7.08597L26.3516 7.18754L26.4492 6.95941C26.8054 6.13239 27.3597 5.4058 28.0633 4.84379L28.35 4.61488L28.0242 4.45316C25.5462 3.16435 22.7931 2.49425 20 2.50004C10.3508 2.50004 2.5 10.3508 2.5 20C2.5 29.6493 10.3508 37.5 20 37.5C29.6492 37.5 37.5 29.6493 37.5 20C37.5041 17.4982 36.9673 15.0251 35.9266 12.75Z" fill="white"/>
</svg>
