<svg width="50" height="49" viewBox="0 0 50 49" fill="none" xmlns="http://www.w3.org/2000/svg">
<path fill-rule="evenodd" clip-rule="evenodd" d="M46.055 37.8984C43.335 37.8231 41.225 38.1017 39.455 38.8499C38.9475 39.0557 38.13 39.0557 38.0625 39.6984C38.3375 39.9696 38.3675 40.4114 38.6075 40.7855C39.015 41.4633 39.73 42.3797 40.375 42.8542L42.55 44.4157C43.8775 45.2317 45.375 45.7062 46.6675 46.5196C47.415 46.9966 48.1625 47.6066 48.9125 48.1163C49.2925 48.3874 49.5225 48.8293 50 49V48.8971C49.7625 48.5908 49.6925 48.1514 49.4575 47.81L48.435 46.8259C47.4386 45.5074 46.2454 44.3515 44.8975 43.399C43.81 42.6508 41.43 41.6341 40.9875 40.3788L40.92 40.3035C41.6675 40.2282 42.5525 39.962 43.2675 39.7587C44.425 39.4549 45.4775 39.5202 46.6675 39.2164L48.3 38.7394V38.4381C47.6875 37.8256 47.245 37.0096 46.6 36.4347C44.8397 34.8991 42.9632 33.5033 40.9875 32.2597C39.9325 31.5818 38.5725 31.1375 37.45 30.5626C37.0401 30.3592 36.3626 30.2563 36.1251 29.9174C35.5101 29.1717 35.1726 28.1851 34.7301 27.3039L31.9401 21.3966C31.3276 20.0735 30.9526 18.7505 30.2051 17.5303C26.7051 11.7561 22.8926 8.26141 17.0426 4.83201C15.7851 4.11902 14.2901 3.81273 12.6976 3.44117L10.1477 3.30309C9.60266 3.0671 9.05766 2.42189 8.58266 2.1156C6.64517 0.89297 1.64519 -1.75314 0.215194 1.73651C-0.704802 3.94077 1.57519 6.11239 2.35019 7.2346C2.92768 8.01287 3.67518 8.89658 4.08518 9.78029C4.31268 10.3577 4.39018 10.9678 4.62768 11.5778C5.17267 13.0716 5.68267 14.7361 6.39767 16.1269C6.77767 16.8399 7.17767 17.5881 7.65516 18.2333C7.92766 18.6124 8.40516 18.7756 8.50516 19.3881C8.03016 20.066 7.99516 21.0828 7.72267 21.9338C6.49767 25.7699 6.97267 30.5199 8.71016 33.3442C9.25516 34.1928 10.5377 36.0607 12.2801 35.3477C13.8126 34.7351 13.4701 32.802 13.9126 31.1048C14.0151 30.6981 13.9476 30.427 14.1501 30.1533V30.2287L15.5451 33.048C16.6001 34.71 18.4376 36.4423 19.9676 37.5971C20.7826 38.2072 21.4276 39.2591 22.4476 39.6306V39.5302H22.3826C22.1776 39.2265 21.8701 39.0884 21.5976 38.8524C20.9541 38.2223 20.363 37.5405 19.8301 36.8138C18.3924 34.8649 17.1189 32.7991 16.0226 30.6379C15.4776 29.5835 15.0001 28.4311 14.5601 27.3792C14.3526 26.9725 14.3526 26.3599 14.0151 26.1566C13.5026 26.9022 12.7576 27.5499 12.3801 28.4663C11.7351 29.9224 11.6676 31.7224 11.4302 33.5903C11.2927 33.6254 11.3552 33.5903 11.2927 33.6656C10.2052 33.397 9.83016 32.2748 9.42266 31.3258C8.40266 28.9157 8.23266 25.0469 9.11516 22.2627C9.35516 21.5497 10.3752 19.3078 9.96766 18.63C9.76266 17.9847 9.08266 17.6132 8.70766 17.1035C8.23489 16.4183 7.82488 15.6915 7.48267 14.9319C6.67017 13.0289 6.26017 10.9251 5.37517 9.02462C4.96768 8.14091 4.25268 7.22456 3.67518 6.41114C3.02768 5.4948 2.31519 4.84959 1.80519 3.76252C1.63519 3.38343 1.39769 2.77839 1.67019 2.37168C1.73519 2.10054 1.87269 1.99008 2.14519 1.92982C2.58518 1.55073 3.84518 2.03025 4.28768 2.2336C5.54517 2.74324 6.60017 3.21773 7.65516 3.93073C8.13016 4.26965 8.64016 4.91486 9.25516 5.08558H9.96766C11.0577 5.32408 12.2801 5.16089 13.3001 5.46718C15.1001 6.0446 16.7351 6.89066 18.2001 7.80952C22.6997 10.6653 26.3616 14.672 28.8101 19.4183C29.2176 20.199 29.3851 20.912 29.7601 21.728C30.4776 23.3899 31.3601 25.0871 32.0751 26.7164C32.7901 28.3131 33.4701 29.9425 34.4901 31.2655C35.0001 31.9785 37.0401 32.3526 37.9576 32.7267C38.6375 33.0279 39.6925 33.3041 40.3075 33.6756C41.46 34.3886 42.6175 35.2046 43.705 35.9853C44.2475 36.3921 45.95 37.2406 46.0525 37.9185L46.055 37.8984ZM11.3701 8.402C10.9006 8.39899 10.4327 8.45636 9.97766 8.57272V8.64804H10.0452C10.3177 9.19031 10.7952 9.56439 11.1327 10.0414L11.9151 11.6707L11.9826 11.5954C12.4576 11.254 12.6976 10.7117 12.6976 9.89829C12.4926 9.65979 12.4601 9.42129 12.2901 9.18529C12.0851 8.84637 11.6426 8.67565 11.3701 8.40452" fill="white"/>
</svg>
