<svg width="50" height="50" viewBox="0 0 50 50" fill="none" xmlns="http://www.w3.org/2000/svg">
<path d="M23.4375 4.6499L23.1729 4.91449V14.4291L23.4375 14.6978H26.6167L26.8792 14.427V4.91657L26.6167 4.65199L23.4375 4.6499ZM13.9375 11.3645L11.7563 13.5416V13.9791L15.0896 17.3124H17.3979L17.7063 17.0041V14.6978L14.3729 11.3645H13.9375ZM2.13751 23.1457L1.87292 23.4103V26.5937L2.13751 26.8582H14.825L15.0896 26.5937V23.4103L14.825 23.1457H2.13751ZM35.175 23.1457L34.9104 23.4103V26.5937L35.175 26.8582H47.8625L48.1271 26.5937V23.4103L47.8625 23.1457H35.175ZM15.0917 32.6874L11.7583 36.0207V36.4582L13.9354 38.6374H14.3729L17.7063 35.3041V32.9937L17.3979 32.6895L15.0917 32.6874ZM23.4354 35.3041L23.1708 35.5749V45.0874L23.4354 45.352H26.6146L26.8771 45.0874V35.5728L26.6146 35.3041H23.4354Z" fill="#00BFA5"/>
<path d="M30.9479 31.6084H27.775L27.5104 31.3438V23.9167C27.5104 22.5959 26.9916 21.573 25.4 21.5375C24.5791 21.5167 23.6416 21.5375 22.6396 21.5771L22.4896 21.7313V31.3355L22.225 31.6021H19.0541L18.7875 31.3375V18.6584L19.0541 18.3938H26.1896C27.5212 18.3938 28.7982 18.9228 29.7398 19.8644C30.6814 20.806 31.2104 22.083 31.2104 23.4146V31.3438L30.9479 31.6084Z" fill="#CFD8DC"/>
</svg>
