<svg width="50" height="50" viewBox="0 0 50 50" fill="none" xmlns="http://www.w3.org/2000/svg">
<path d="M23.3625 0.0130929L22.605 0.0805928C15.505 0.720593 8.8525 4.5531 4.6375 10.4406C2.30865 13.674 0.794927 17.4218 0.225 21.3656C0.0249998 22.7356 0 23.1406 0 25.0031C0 26.8656 0.0249998 27.2706 0.225 28.6456C1.5825 38.0331 8.265 45.9206 17.325 48.8431C18.95 49.3656 20.66 49.7206 22.605 49.9381C23.3625 50.0206 26.6375 50.0206 27.395 49.9381C30.7525 49.5631 33.595 48.7356 36.4025 47.3031C36.8325 47.0831 36.915 47.0231 36.8575 46.9756C36.8175 46.9456 34.985 44.4881 32.785 41.5156L28.7875 36.1156L23.7775 28.7031C22.1121 26.2235 20.4312 23.7543 18.735 21.2956C18.715 21.2906 18.695 24.5831 18.685 28.6056C18.67 35.6481 18.665 35.9306 18.5775 36.0981C18.4913 36.2926 18.3389 36.4503 18.1475 36.5431C17.99 36.6181 17.855 36.6356 17.1175 36.6356H16.27L16.045 36.4931C15.9091 36.4023 15.7975 36.2796 15.72 36.1356L15.615 35.9156L15.625 26.1181L15.64 16.3156L15.79 16.1256C15.8908 16.0036 16.0138 15.9018 16.1525 15.8256C16.3525 15.7281 16.4325 15.7181 17.2775 15.7181C18.275 15.7181 18.44 15.7581 18.7 16.0431C18.775 16.1181 21.485 20.2056 24.73 25.1256L34.595 40.0656L38.5525 46.0606L38.7525 45.9306C40.5275 44.7756 42.4025 43.1356 43.89 41.4231C47.0402 37.8189 49.0836 33.3823 49.775 28.6456C49.975 27.2706 50 26.8656 50 25.0031C50 23.1431 49.975 22.7356 49.775 21.3631C48.4175 11.9756 41.735 4.0881 32.675 1.16559C30.9806 0.626834 29.2358 0.261626 27.4675 0.0755932C27 0.0255931 23.7675 -0.0244072 23.3625 0.0130929ZM33.5975 15.1331C33.8325 15.2506 34.0225 15.4756 34.09 15.7081C34.13 15.8356 34.14 18.5531 34.13 24.6756L34.115 33.4631L32.565 31.0881L31.0125 28.7131V22.3256C31.0125 18.1956 31.0325 15.8756 31.0625 15.7631C31.0975 15.6334 31.1583 15.5122 31.2412 15.4065C31.3241 15.3008 31.4274 15.213 31.545 15.1481C31.745 15.0456 31.82 15.0356 32.585 15.0356C33.31 15.0356 33.435 15.0456 33.5975 15.1331Z" fill="white"/>
</svg>
