<svg width="50" height="50" viewBox="0 0 50 50" fill="none" xmlns="http://www.w3.org/2000/svg">
<path d="M24.7979 45.8334C24.2604 45.8334 23.6562 45.7668 23.1854 45.3626L18.0771 42.3397C17.3375 41.8688 17.675 41.8001 18.0104 41.6668C19.0187 41.398 19.2187 41.1959 20.2958 40.6584C20.3625 40.5918 20.5646 40.5918 20.6979 40.7251L24.5958 43.0793C24.6646 43.1459 24.8666 43.1459 25.0666 43.0793L40.3229 34.2751C40.3896 34.2063 40.5916 34.0043 40.5916 33.8709V16.1959C40.5916 15.9938 40.5229 15.9272 40.3208 15.7938L25 7.12301C24.9333 7.05634 24.7291 7.05634 24.5291 7.12301L9.34164 15.9272C9.27289 15.9938 9.07081 16.198 9.07081 16.3313V33.873C9.07081 34.073 9.13956 34.1397 9.34164 34.2751L13.5083 36.6272C15.7937 37.7688 17.2041 36.4251 17.2041 35.0126V17.8084C17.2027 17.7463 17.2139 17.6845 17.2371 17.6269C17.2603 17.5692 17.2949 17.5169 17.339 17.473C17.383 17.4292 17.4355 17.3948 17.4933 17.3718C17.551 17.3489 17.6129 17.338 17.675 17.3397H19.6229C19.685 17.338 19.7468 17.3489 19.8046 17.3718C19.8623 17.3948 19.9148 17.4292 19.9589 17.473C20.0029 17.5169 20.0376 17.5692 20.0608 17.6269C20.0839 17.6845 20.0952 17.7463 20.0937 17.8084V35.148C20.0937 38.173 18.4812 39.8522 15.6583 39.8522C14.7166 39.8522 14.1791 39.8522 12.1646 38.9105L8.19789 36.6938C7.70635 36.4047 7.29894 35.9921 7.01608 35.4969C6.73323 35.0017 6.58475 34.4412 6.58539 33.8709V16.1959C6.58539 15.0543 7.12289 14.0459 8.19789 13.373L23.3187 4.57093C23.8155 4.30682 24.3696 4.1687 24.9323 4.1687C25.4949 4.1687 26.049 4.30682 26.5458 4.57093L41.8 13.4418C42.7416 13.9793 43.4146 15.0543 43.4146 16.2626V33.8043C43.4146 34.9459 42.8771 35.9543 41.8 36.6272L26.6125 45.3626C25.9416 45.7668 25.4041 45.8334 24.8 45.8334M37.0979 28.4938C37.0979 25.2022 34.9479 24.3272 30.1771 23.6563C25.4062 22.9855 25.0021 22.7147 25.0021 21.573C25.0021 20.6313 25.4041 19.423 28.8979 19.423C31.9916 19.423 33.1333 20.0938 33.6041 22.2438C33.6708 22.4459 33.8062 22.5147 34.075 22.5147H36.0229C36.0896 22.5147 36.2937 22.4459 36.2937 22.4459C36.2937 22.4459 36.3583 22.2438 36.3583 22.1772C36.0896 18.4813 33.6041 16.8688 28.8333 16.8688C24.4646 16.8688 21.8437 18.6813 21.8437 21.7751C21.8437 25.0668 24.4646 26.0084 28.5646 26.4105C33.5375 26.8813 33.9396 27.6209 33.9396 28.5626C33.9396 30.2418 32.5958 30.9147 29.4375 30.9147C25.4041 30.9147 24.5312 29.9063 24.2625 27.8897C24.1958 27.6876 24.0604 27.4876 23.7916 27.4876H21.9791C21.9168 27.4856 21.8548 27.4963 21.7968 27.5191C21.7388 27.5419 21.686 27.5763 21.6418 27.6202C21.5975 27.664 21.5627 27.7165 21.5394 27.7743C21.516 27.8321 21.5048 27.894 21.5062 27.9563C21.5062 30.5105 22.8521 33.6022 29.5062 33.6022C34.3437 33.7376 37.0979 31.8543 37.0979 28.4938Z" fill="white"/>
</svg>
