<svg width="248" height="344" viewBox="0 0 248 344" fill="none" xmlns="http://www.w3.org/2000/svg">
<path fill-rule="evenodd" clip-rule="evenodd" d="M15 0C6.71573 0 0 6.71573 0 15V145H194C202.284 145 209 138.284 209 130V15C209 6.71573 202.284 0 194 0H15ZM147 33H60V106H147V33Z" fill="white"/>
<path d="M0 308H60V140H0V308Z" fill="white"/>
<path d="M80 166H129.968L234 344H188.947L80 166Z" fill="white"/>
<path d="M110.46 255L106.809 292.979L140.385 308.466H80L110.46 255Z" fill="#D9D9D9" fill-opacity="0.75"/>
<path d="M186.437 220.94L221.04 237.017L217.4 273.812L247.966 221.734L186.437 220.94Z" fill="#D9D9D9" fill-opacity="0.75"/>
</svg>
