<svg width="50" height="50" viewBox="0 0 50 50" fill="none" xmlns="http://www.w3.org/2000/svg">
<path d="M16.633 34.161C16.3987 32.6317 15.7541 31.3895 14.1897 30.7889C13.5774 30.5545 13.0471 30.1267 12.4436 29.8572C11.758 29.5496 11.0608 29.2566 10.3371 29.0662C9.78928 28.9197 9.27952 29.1658 8.95432 29.6463C8.6467 30.0974 8.86936 30.5223 9.12717 30.9002C9.41721 31.325 9.73948 31.7293 10.0647 32.1277C10.6037 32.7898 11.175 33.4256 11.6994 34.0966C12.2004 34.7382 12.6281 35.4501 12.5549 36.2997C12.3938 38.163 11.55 39.707 10.1906 40.9638C10.0412 41.0985 9.77756 41.1952 9.5842 41.1776C8.71702 41.0839 7.92893 40.7557 7.29319 40.1493C6.5637 39.455 6.67503 38.6376 7.54807 38.1307C7.75608 38.0106 7.97288 37.8993 8.16331 37.7528C8.69651 37.3515 8.87522 36.6659 8.58518 36.0712C8.44749 35.7841 8.29221 35.4735 8.0637 35.2655C6.94749 34.2489 5.85169 33.2 4.65637 32.2743C1.75881 30.0242 0.270631 27.0477 0.0420176 23.4441C-0.215795 19.4421 0.712916 15.7067 2.82522 12.2877C3.62503 10.9898 4.55667 9.7534 5.98635 9.1119C6.95901 8.67538 8.02542 8.42928 9.06555 8.15682C11.928 7.40389 14.8165 6.83846 17.7961 7.34237C20.3625 7.77303 22.2406 9.09432 23.1019 11.6168C23.6673 13.2662 23.8021 14.9713 23.6263 16.7175C23.2806 20.1482 20.7464 23.2156 17.4416 24.1238C16.009 24.5164 15.2268 24.2967 14.3655 23.1043C13.7473 22.2459 13.2346 21.3113 12.6809 20.4059C12.5989 20.2712 12.5403 20.1159 12.4699 19.9724C12.4026 19.8288 12.3293 19.6911 12.259 19.5475C12.467 21.0358 12.8127 22.4685 13.6242 23.7458C14.0637 24.4401 14.6496 24.9528 15.508 25.029C18.6662 25.3132 21.3323 24.2761 23.2249 21.7359C25.3431 18.894 25.809 15.6245 25.1966 12.1821C25.0765 11.5024 24.8743 10.8374 24.7308 10.1606C24.6341 9.72411 24.807 9.40184 25.2376 9.2495C25.4368 9.18212 25.6419 9.12645 25.8411 9.08544C28.4252 8.52879 31.0385 8.34423 33.6723 8.61083C36.6607 8.90965 39.4878 9.72997 42.0161 11.3912C45.9742 13.9957 48.4264 17.7018 49.7594 22.1844C49.9528 22.8348 49.9821 23.5467 49.9996 24.2323C50.0114 24.6893 49.7184 24.8095 49.3698 24.5224C48.986 24.2089 48.6344 23.8515 48.3033 23.4823C47.9957 23.1337 47.7496 22.7352 47.4508 22.369C47.2194 22.0819 47.0172 22.1259 46.9059 22.4833C46.8356 22.7001 46.7741 22.914 46.7125 23.1307C46.0211 25.5975 44.9313 27.8475 43.1647 29.7432C42.9186 30.0098 42.6989 30.4053 42.6696 30.7568C42.5934 31.7295 42.5377 32.7226 42.6315 33.6924C42.8248 35.7755 43.1266 37.8496 43.361 39.9298C43.4928 41.1046 43.1149 41.796 42.0104 42.2033C41.234 42.4875 40.402 42.6955 39.5817 42.7541C38.275 42.8449 36.9567 42.7805 35.6442 42.7805C35.609 41.3156 35.735 39.877 34.358 39.0919C34.6246 38.005 34.9323 36.9737 35.1168 35.919C35.2692 35.0431 35.1403 34.1817 34.525 33.464C33.9479 32.7872 33.2242 32.6026 32.562 32.9893C30.5669 34.1524 28.4926 34.1583 26.3803 33.3966C25.4106 33.045 24.7338 33.2442 24.1976 34.129C23.6204 35.0811 23.3773 36.1505 23.4417 37.2316C23.5238 38.5939 23.7611 39.9416 23.9427 41.298C24.0423 42.0568 23.9573 42.2531 23.2044 42.4465C21.5316 42.8713 19.8294 42.9182 18.1184 42.7805C18.0276 42.7717 17.9367 42.7336 17.8782 42.7189C17.7932 41.298 17.9426 39.8214 16.2492 39.0655C16.9992 37.4747 16.8967 35.8253 16.6389 34.1759L16.633 34.1612V34.161ZM6.51965 28.5858C6.76868 28.3514 6.9679 27.9852 7.03821 27.6483C7.21399 26.8046 6.58118 25.6737 5.84876 25.3602C5.45911 25.1903 5.11926 25.2518 4.84387 25.5624C4.17297 26.3212 3.51087 27.0888 2.85159 27.8594C2.74026 27.9912 2.64065 28.1465 2.56155 28.3017C2.29788 28.8086 2.45315 29.1777 3.01565 29.3154C3.35549 29.4004 3.70706 29.418 4.05569 29.4678C4.96389 29.3799 5.8428 29.2275 6.51956 28.5889L6.51965 28.5858ZM6.59583 20.1512C6.5929 19.5476 6.08899 19.0437 5.49426 19.0408C4.88196 19.0379 4.35462 19.5857 4.37512 20.1892C4.40149 20.7957 4.9054 21.282 5.50891 21.2703C6.11829 21.2615 6.60462 20.7635 6.59876 20.1541L6.59583 20.1512Z" fill="white"/>
</svg>
