<svg width="50" height="50" viewBox="0 0 50 50" fill="none" xmlns="http://www.w3.org/2000/svg">
<path d="M35.0104 2.08325C33.1767 2.10041 31.3533 2.3596 29.5875 2.85409L29.4625 2.89159C28.3507 2.70094 27.2258 2.59577 26.0979 2.577C23.7792 2.53742 21.7854 3.08325 20.1813 3.99367C18.5979 3.46034 15.3146 2.54159 11.8542 2.72492C9.44376 2.852 6.8146 3.56242 4.86668 5.55825C2.92293 7.55409 1.89585 10.6416 2.11251 14.8437C2.17085 16.0041 2.51043 17.8937 3.0771 20.3437C3.6396 22.7916 4.43543 25.6562 5.42501 28.2708C6.4146 30.8853 7.50001 33.2374 9.19585 34.8332C10.0417 35.6332 11.2063 36.3062 12.5792 36.2499C13.5438 36.2124 14.4167 35.802 15.1688 35.1957C15.5354 35.6645 15.9271 35.8687 16.2833 36.0583C16.7313 36.2958 17.1688 36.4583 17.6208 36.5666C18.8728 36.8876 20.1767 36.9521 21.4542 36.7562C22.0104 36.6666 22.5958 36.4916 23.1792 36.2416C23.2 36.8708 23.225 37.4874 23.2521 38.1124C23.3313 40.0916 23.3833 41.9187 23.9958 43.5207C24.0938 43.7832 24.3625 45.1312 25.4271 46.3207C26.4896 47.5124 28.5729 48.2541 30.9438 47.7624C32.6167 47.4145 34.7458 46.7874 36.1583 44.8374C37.5542 42.9082 38.1854 40.1416 38.3104 35.652C38.3417 35.4103 38.3792 35.2041 38.4188 35.0103L38.7521 35.0395H38.7896C40.575 35.1187 42.5125 34.8728 44.1313 34.1437C45.5646 33.4978 46.6479 32.8478 47.4375 31.6916C47.6354 31.4062 47.8521 31.0603 47.9104 30.4624C47.9688 29.8687 47.6188 28.9353 47.0333 28.5062C45.8604 27.6437 45.125 27.9708 44.3354 28.1312C43.5576 28.2978 42.7688 28.3902 41.9688 28.4083C44.2458 24.6916 45.8771 20.7416 46.8083 17.2458C47.3583 15.1833 47.6688 13.2812 47.6938 11.6187C47.7188 9.95617 47.5792 8.48325 46.5521 7.20825C43.3417 3.22909 38.8271 2.12909 35.3354 2.09159C35.2271 2.08881 35.1188 2.08811 35.0104 2.0895V2.08325ZM34.9188 3.30617C38.2208 3.27492 42.4417 4.17492 45.4708 7.93117C46.1521 8.77492 46.3542 10.0083 46.3313 11.5291C46.3063 13.0478 46.0167 14.8645 45.4875 16.8562C44.4604 20.7145 42.5188 25.2103 39.7833 29.2478C39.8805 29.3152 39.9854 29.3704 40.0958 29.4124C40.6667 29.6416 41.9667 29.8374 44.5646 29.3208C45.2167 29.1853 45.6958 29.0958 46.1917 29.4624C46.3103 29.5609 46.4046 29.6855 46.4671 29.8264C46.5296 29.9674 46.5587 30.1209 46.5521 30.2749C46.5245 30.5076 46.4362 30.7289 46.2958 30.9166C45.7958 31.6478 44.8042 32.3416 43.5333 32.9124C42.4104 33.4208 40.7979 33.6853 39.3688 33.702C38.6521 33.7083 37.9917 33.6541 37.4313 33.4853L37.3938 33.4728C37.1771 35.4958 36.6792 39.4937 36.3563 41.3166C36.0958 42.7874 35.6417 43.9562 34.7729 44.8312C33.9063 45.7062 32.6813 46.2332 31.0313 46.577C28.9875 47.002 27.4979 46.5437 26.5375 45.7583C25.5792 44.977 25.1396 43.9374 24.875 43.2999C24.6938 42.8624 24.6 42.2937 24.5083 41.5333C24.4075 40.6228 24.3401 39.709 24.3063 38.7937C24.2465 37.1889 24.227 35.5828 24.2479 33.977C23.3938 34.7332 22.3313 35.2374 21.1917 35.427C19.8375 35.6499 18.625 35.4312 17.9021 35.2562C17.5477 35.1688 17.205 35.0394 16.8813 34.8708C16.5438 34.6978 16.225 34.502 16.0125 34.1145C15.8873 33.8933 15.8473 33.634 15.9 33.3853C15.9682 33.1327 16.1194 32.9104 16.3292 32.7541C16.7208 32.4458 17.2354 32.2749 18.0125 32.1166C19.4292 31.8353 19.9229 31.6416 20.2229 31.4103C20.4792 31.2124 20.7688 30.8124 21.2813 30.2228L21.275 30.1458C20.3617 30.1189 19.4663 29.8853 18.6563 29.4624C18.3625 29.7624 16.8542 31.3103 15.0146 33.4562C14.2417 34.3541 13.3875 34.8687 12.4854 34.9062C11.5833 34.9437 10.7688 34.502 10.0771 33.852C8.69168 32.5478 7.58751 30.3041 6.62501 27.7687C5.66668 25.2312 4.88335 22.4062 4.32918 19.9999C3.77085 17.5937 3.44168 15.6541 3.39585 14.7187C3.18751 10.7416 4.14585 8.06242 5.79168 6.37284C7.43751 4.68325 9.69168 4.04159 11.8917 3.92075C15.8375 3.69992 19.5854 5.03534 20.3438 5.32284C21.8042 4.36034 23.6854 3.76034 26.0375 3.79784C27.1523 3.81334 28.262 3.95309 29.3458 4.2145L29.3854 4.19784C29.8632 4.03534 30.3479 3.89922 30.8396 3.7895C32.1781 3.48738 33.5446 3.32678 34.9167 3.31034L34.9188 3.30617ZM35.2167 4.58534H34.9313C33.8041 4.60052 32.6809 4.7233 31.5771 4.952C33.7682 5.90633 35.6933 7.38093 37.1854 9.24784C38.0893 10.3647 38.8391 11.598 39.4146 12.9145C39.6313 13.4187 39.7771 13.8458 39.8583 14.1749C39.9 14.3416 39.9292 14.4812 39.9375 14.627C39.9452 14.7193 39.9375 14.8122 39.9146 14.902L39.9021 14.927C39.9625 16.5999 39.5354 17.7333 39.4833 19.3291C39.4438 20.4874 39.7479 21.8478 39.8229 23.3291C39.8938 24.7249 39.7208 26.2562 38.7875 27.7603C38.8653 27.852 38.9403 27.9437 39.0125 28.0353C41.4813 24.2645 43.2625 20.0895 44.2104 16.5333C44.7167 14.6166 44.9875 12.8812 45.0104 11.5062C45.0313 10.1312 44.7667 9.13325 44.4292 8.71867C41.7875 5.44159 38.2146 4.60825 35.2167 4.58534ZM25.7896 5.07283C23.4625 5.077 21.7917 5.76034 20.5271 6.78117C19.2208 7.83742 18.3458 9.28117 17.7708 10.7624C17.2143 12.2427 16.874 13.7955 16.7604 15.3728L16.7875 15.3583C17.4896 14.9749 18.4125 14.5937 19.4 14.3728C20.3896 14.152 21.4542 14.0833 22.4188 14.4458C23.3833 14.8083 24.1813 15.6624 24.4708 16.9583C25.8563 23.1791 24.0396 25.4916 23.3688 27.2353C23.1171 27.8682 22.9001 28.5143 22.7188 29.1707C22.8021 29.1471 22.8861 29.1305 22.9708 29.1208C23.3368 29.101 23.702 29.1725 24.0333 29.3291C24.7083 29.5999 25.1708 30.1666 25.4208 30.8166C25.4861 30.9888 25.5327 31.1694 25.5604 31.3583C25.5882 31.4374 25.6014 31.5187 25.6 31.602C25.5251 33.9807 25.5335 36.3614 25.625 38.7395C25.6708 39.7687 25.7375 40.6728 25.8229 41.3874C25.9063 42.0999 26.0271 42.6416 26.1042 42.8249C26.3542 43.4374 26.7229 44.2374 27.3896 44.7812C28.0563 45.3249 29.0083 45.6853 30.7521 45.3228C32.2646 45.0082 33.1979 44.5728 33.8229 43.9416C34.4438 43.3145 34.8167 42.4416 35.0542 41.102C35.4104 39.0957 36.1271 33.2812 36.2125 32.1853C36.175 31.3624 36.3 30.727 36.5708 30.2437C36.8521 29.7478 37.2854 29.4437 37.6583 29.2791C37.8458 29.1958 38.0208 29.1416 38.1646 29.102C38.0114 28.8901 37.8516 28.683 37.6854 28.4812C37.1467 27.8509 36.705 27.1439 36.375 26.3832C36.216 26.0704 36.0472 25.7626 35.8688 25.4603C35.6083 25.002 35.2771 24.4291 34.9313 23.7853C34.2375 22.4958 33.4833 20.9333 33.0917 19.4103C32.7021 17.8916 32.6438 16.3187 33.6438 15.2083C34.5313 14.2228 36.0854 13.8145 38.4208 14.0437C38.3521 13.8437 38.3104 13.677 38.1938 13.4103C37.6667 12.1999 36.9778 11.0666 36.1458 10.0416C34.1667 7.58742 30.9646 5.15409 26.0146 5.07492H25.7896V5.07283ZM12.7146 5.17075C12.4646 5.17075 12.2146 5.1777 11.9646 5.19159C9.9771 5.302 8.09793 5.86242 6.75418 7.24575C5.40626 8.627 4.52085 10.8937 4.71251 14.6478C4.7521 15.3562 5.07085 17.3478 5.61668 19.7103C6.16251 22.077 6.93751 24.8583 7.86668 27.3145C8.79585 29.7728 9.92501 31.9124 10.9958 32.9249C11.5354 33.4312 12.0042 33.6353 12.4292 33.6187C12.8563 33.5978 13.3688 33.3603 13.9979 32.6291C15.1437 31.2882 16.3318 29.9841 17.5604 28.7187C16.6924 27.9907 16.0241 27.0536 15.6188 25.9958C15.2167 24.9479 15.0946 23.8134 15.2646 22.7041C15.4667 21.2916 15.4938 19.9708 15.4708 18.9291C15.4458 17.9124 15.3708 17.2374 15.3708 16.8145V16.7562C15.3687 14.5544 15.7632 12.3702 16.5354 10.3083C17.0854 8.88742 17.9063 7.44367 19.1375 6.27492C17.9292 5.8895 15.7833 5.302 13.4604 5.19159C13.2106 5.17821 12.9606 5.17126 12.7104 5.17075H12.7146ZM37.1188 15.2583C35.7833 15.2749 35.0333 15.6103 34.6396 16.0478C34.0813 16.6687 34.0292 17.7562 34.375 19.0978C34.7208 20.4395 35.4313 21.9416 36.1021 23.1874C36.4354 23.8124 36.7604 24.3749 37.0229 24.8291C37.2875 25.2874 37.4813 25.6124 37.5979 25.8916C37.709 26.143 37.8257 26.3728 37.9479 26.5812C38.4646 25.5208 38.5583 24.4812 38.5042 23.3958C38.4354 22.0541 38.1146 20.6812 38.1625 19.2916C38.2146 17.6666 38.5458 16.6062 38.575 15.3499C38.0918 15.291 37.6055 15.2604 37.1188 15.2583ZM20.9104 15.477C20.5023 15.4801 20.0958 15.5276 19.6979 15.6187C18.907 15.8052 18.1436 16.0937 17.4271 16.477C17.1868 16.602 16.9577 16.7471 16.7396 16.9124L16.6979 16.9499C16.7104 17.2291 16.7667 17.9062 16.7917 18.8999C16.8125 19.9895 16.7875 21.3791 16.5708 22.8791C16.1 26.1458 18.5417 28.8499 21.4125 28.8541C21.5792 28.1833 21.8563 27.5041 22.1313 26.7874C22.9313 24.6978 24.5042 23.1749 23.1792 17.227C22.9625 16.2541 22.5333 15.8603 21.9417 15.6374C21.6104 15.5224 21.261 15.468 20.9104 15.477ZM36.4938 15.8666H36.5938C36.7243 15.8708 36.8424 15.8846 36.9479 15.9083C37.0437 15.9275 37.1354 15.9635 37.2188 16.0145C37.2567 16.0368 37.2895 16.067 37.315 16.1029C37.3405 16.1388 37.3581 16.1796 37.3667 16.2228V16.2395C37.3721 16.3311 37.3472 16.4219 37.2958 16.4978C37.2377 16.6029 37.1647 16.699 37.0792 16.7833C36.8773 16.9975 36.6111 17.1401 36.3208 17.1895C36.0363 17.2232 35.7493 17.1529 35.5125 16.9916C35.4172 16.9286 35.331 16.8529 35.2563 16.7666C35.1931 16.6991 35.1498 16.6155 35.1313 16.5249C35.1267 16.4804 35.1318 16.4354 35.1462 16.3929C35.1606 16.3505 35.1839 16.3117 35.2146 16.2791C35.2812 16.2092 35.3594 16.1514 35.4458 16.1083C35.7758 15.9567 36.1329 15.8731 36.4958 15.8624L36.4938 15.8666ZM21.1021 16.1874C21.2063 16.1874 21.3153 16.1958 21.4292 16.2124C21.7292 16.2541 21.9979 16.3312 22.2021 16.4458C22.3021 16.4971 22.3896 16.5645 22.4646 16.6478C22.5035 16.6937 22.5327 16.7444 22.5521 16.7999C22.5715 16.8555 22.5778 16.9131 22.5708 16.9728C22.5519 17.0833 22.5004 17.1856 22.4229 17.2666C22.3423 17.3636 22.2475 17.4479 22.1417 17.5166C21.883 17.6928 21.5691 17.769 21.2583 17.7312C20.9431 17.6803 20.6533 17.5273 20.4333 17.2958C20.3419 17.2025 20.2634 17.0974 20.2 16.9833C20.1351 16.8834 20.1065 16.7642 20.1188 16.6458C20.1479 16.4374 20.325 16.3333 20.4938 16.2708C20.6888 16.2089 20.8936 16.1834 21.0979 16.1958L21.1021 16.1874ZM38.9354 30.2124H38.9292C38.6396 30.3166 38.4021 30.3583 38.2 30.4416C37.9987 30.5162 37.8319 30.6623 37.7313 30.852C37.6063 31.0708 37.5021 31.4603 37.5333 32.1228C37.6231 32.1821 37.7215 32.227 37.825 32.2562C38.1604 32.3562 38.725 32.4228 39.3563 32.4124C40.6104 32.3978 42.1563 32.1145 42.9771 31.7437C43.65 31.4395 44.275 31.0437 44.8333 30.5687C42.0896 31.1187 40.5417 30.9728 39.5896 30.5916C39.3548 30.4958 39.1346 30.3695 38.9354 30.2124ZM23.1271 30.3895H23.0854C22.9813 30.3978 22.8292 30.4312 22.5375 30.7478C21.85 31.4937 21.6125 31.9603 21.0458 32.3978C20.4833 32.8353 19.7479 33.0666 18.2813 33.3582C17.8167 33.4499 17.5521 33.552 17.3729 33.6332C17.4313 33.6791 17.425 33.6916 17.5104 33.7353C17.725 33.8499 18.0021 33.9499 18.2229 34.0062C18.8542 34.1582 19.8896 34.3374 20.9708 34.1582C22.0521 33.9791 23.175 33.477 24.1333 32.1728C24.3 31.9478 24.3167 31.6145 24.1813 31.2562C24.0417 30.902 23.7417 30.5937 23.5292 30.5062C23.4024 30.4464 23.2665 30.4084 23.1271 30.3937V30.3895Z" fill="white"/>
</svg>
