<svg width="50" height="50" viewBox="0 0 50 50" fill="none" xmlns="http://www.w3.org/2000/svg">
<path d="M24.6047 0.759029C19.5543 0.837154 14.486 2.48872 10.1809 5.81372C-0.414811 13.9985 -2.36989 29.2239 5.81527 39.8196C14.0016 50.4145 29.2282 52.368 39.8223 44.1817C50.4137 35.9973 52.3684 20.7762 44.1864 10.1821C39.3282 3.89067 31.986 0.644575 24.6047 0.759029ZM35.884 9.7977C36.6734 9.80241 37.4396 10.065 38.066 10.5454L34.9145 13.7161C34.9038 13.7282 34.8939 13.741 34.8848 13.7543C34.828 13.8118 34.7947 13.8884 34.7914 13.9692C34.7914 14.018 34.8024 14.0662 34.8235 14.1101C34.8447 14.1541 34.8755 14.1927 34.9137 14.2231H34.9145L37.2973 16.6059C36.6451 16.8905 35.9221 16.9715 35.2231 16.8381C34.5241 16.7048 33.8817 16.3634 33.3801 15.8586C32.37 14.843 32.077 13.318 32.6172 11.995C33.1575 10.6707 34.4453 9.80551 35.884 9.7977ZM38.6653 11.1383C39.1806 11.7618 39.4615 12.5459 39.4594 13.3547C39.458 14.3023 39.0803 15.2105 38.4094 15.8797C38.2749 16.0063 38.1316 16.1231 37.9805 16.2293L36.0575 14.336L35.6813 13.9598L35.7848 13.8563L38.6649 11.1375L38.6653 11.1383ZM38.5223 12.7762C38.4516 12.754 38.3752 12.7583 38.3075 12.7883C38.2404 12.823 38.1898 12.8828 38.1668 12.9547C38.1555 12.9906 38.1514 13.0284 38.1548 13.0659C38.1581 13.1033 38.1689 13.1398 38.1864 13.1731C38.2556 13.3191 38.2829 13.4814 38.2652 13.642C38.2474 13.8026 38.1854 13.9551 38.086 14.0825C38.0605 14.107 38.0406 14.1367 38.0274 14.1696C38.0143 14.2025 38.0083 14.2377 38.0098 14.2731C38.0114 14.345 38.0371 14.4137 38.086 14.4653C38.138 14.4852 38.1956 14.4852 38.2477 14.4653C38.2947 14.477 38.3439 14.4757 38.3902 14.4614C38.4365 14.4472 38.478 14.4205 38.5102 14.3844C38.6765 14.1807 38.7818 13.934 38.814 13.6729C38.8461 13.4119 38.8038 13.1471 38.6918 12.909V12.9106C38.6537 12.8466 38.5933 12.7988 38.5223 12.7762ZM30.9922 15.4024C31.4636 15.4185 31.9171 15.5865 32.2852 15.8813C31.8888 15.9384 31.5215 16.122 31.2379 16.4047L22.3289 25.2739L20.5805 23.5254C25.2008 18.927 28.0258 16.525 29.7821 15.7379C30.1439 15.5101 30.5647 15.3937 30.9922 15.4024ZM32.541 16.5586C32.8402 16.5589 33.127 16.6774 33.3391 16.8883C33.4516 16.9943 33.5404 17.123 33.5996 17.2658C33.6588 17.4086 33.687 17.5623 33.6825 17.7168C33.6773 17.8708 33.6405 18.0221 33.5743 18.1612C33.5081 18.3003 33.4139 18.4243 33.2977 18.5254L23.825 26.77L22.8028 25.7477L31.743 16.8883C31.9551 16.6775 32.242 16.5588 32.541 16.5586ZM33.7106 19.175C33.0504 21.793 29.5516 25.3403 25.9032 28.7872L24.4278 27.3133L33.7106 19.175ZM20.0653 24.0418L20.1723 24.1473L21.5446 25.5196L17.7828 26.3243L20.0653 24.0418ZM22.3282 26.3231L22.3297 26.3247L22.786 26.7915L22.793 26.8243L22.8235 26.829L22.9203 26.9282L23.2407 27.2563L21.1371 27.5141L22.3282 26.3231ZM23.8387 27.9153L25.2364 29.3122C22.1458 31.882 18.7544 34.0668 15.1368 35.8184C15.0193 35.8743 14.9249 35.9692 14.8695 36.087C14.8142 36.2047 14.8014 36.338 14.8332 36.4641L15.2375 38.2219C15.2524 38.2426 15.2605 38.2674 15.2605 38.2928C15.2605 38.3183 15.2524 38.3431 15.2375 38.3637C15.2153 38.3836 15.1865 38.3947 15.1567 38.3947C15.1268 38.3947 15.098 38.3836 15.0758 38.3637L12.6922 35.9606L20.0391 28.5059L23.8387 27.9153ZM12.1461 36.4856L12.4856 36.8036L14.2403 38.5582L10.3278 38.3051L12.1461 36.4856Z" fill="white"/>
</svg>
