<svg width="50" height="50" viewBox="0 0 50 50" fill="none" xmlns="http://www.w3.org/2000/svg">
<mask id="mask0_25_111" style="mask-type:luminance" maskUnits="userSpaceOnUse" x="0" y="0" width="50" height="50">
<path d="M0 0H50V50H0V0Z" fill="white"/>
</mask>
<g mask="url(#mask0_25_111)">
<path d="M24.8208 0C12.125 0 12.9167 5.53333 12.9167 5.53333L12.9312 11.2667H25.0437V12.9875H8.125C8.125 12.9875 0 12.0604 0 24.9354C0 37.8104 7.08958 37.3521 7.08958 37.3521H11.3187V31.3792C11.3187 31.3792 11.0917 24.2542 18.2979 24.2542H30.3104C30.3104 24.2542 37.0604 24.3625 37.0604 17.6958V6.67083C37.0604 6.67083 38.0854 0 24.8208 0ZM18.1417 3.85417C19.3458 3.85417 20.3208 4.83333 20.3208 6.04583C20.3208 7.25625 19.3458 8.23542 18.1417 8.23542C16.9375 8.23542 15.9625 7.25625 15.9625 6.04583C15.9625 4.83333 16.9354 3.85417 18.1417 3.85417Z" fill="white"/>
<path d="M25.1812 50.0001C37.8729 50.0001 37.0812 44.4668 37.0812 44.4668L37.0666 38.7334H24.9541V37.0126H41.8771C41.8771 37.0126 50.0021 37.9397 50.0021 25.0647C50.0021 12.1897 42.9104 12.648 42.9104 12.648H38.6812V18.6209C38.6812 18.6209 38.9083 25.7459 31.7021 25.7459H19.6916C19.6916 25.7459 12.9416 25.6376 12.9416 32.3043V43.3293C12.9416 43.3293 11.9166 50.0001 25.1812 50.0001ZM31.8604 46.1459C30.6541 46.1459 29.6812 45.1668 29.6812 43.9543C29.6812 42.7439 30.6541 41.7647 31.8604 41.7647C33.0646 41.7647 34.0396 42.7439 34.0396 43.9543C34.0396 45.1668 33.0646 46.1459 31.8604 46.1459Z" fill="white"/>
</g>
</svg>
