<svg width="50" height="50" viewBox="0 0 50 50" fill="none" xmlns="http://www.w3.org/2000/svg">
<mask id="mask0_25_18" style="mask-type:luminance" maskUnits="userSpaceOnUse" x="0" y="0" width="50" height="50">
<path d="M0 0H50V50H0V0Z" fill="white"/>
</mask>
<g mask="url(#mask0_25_18)">
<path d="M50 24.352C50 21.0395 45.8521 17.8999 39.4917 15.9541C40.9604 9.47284 40.3083 4.3145 37.4333 2.66242C36.7365 2.27273 35.9482 2.07637 35.15 2.09367V4.3645C35.6187 4.3645 35.9958 4.45825 36.3125 4.63117C37.6979 5.427 38.3 8.452 37.8312 12.3458C37.7188 13.3041 37.5354 14.3124 37.3104 15.3416C35.1801 14.8301 33.0185 14.4591 30.8396 14.2312C29.5407 12.4406 28.1244 10.7383 26.6 9.13534C29.9229 6.04784 33.0417 4.35617 35.1625 4.35617V2.08325C32.3583 2.08325 28.6896 4.08117 24.9792 7.54575C21.2708 4.10409 17.6 2.12492 14.7979 2.12492V4.39575C16.9083 4.39575 20.0375 6.07909 23.3604 9.14575C21.9333 10.6458 20.5063 12.3458 19.15 14.2312C16.9665 14.4559 14.8009 14.8304 12.6687 15.352C12.4354 14.3326 12.2583 13.3478 12.1375 12.3978C11.6583 8.502 12.25 5.477 13.6271 4.67284C13.9312 4.4895 14.3292 4.40617 14.7979 4.40617V2.13534C13.9437 2.13534 13.1667 2.31867 12.4958 2.70409C9.63125 4.35617 8.98958 9.502 10.4667 15.9645C4.12708 17.9228 0 21.0499 0 24.352C0 27.6645 4.14792 30.8041 10.5083 32.7478C9.03958 39.2312 9.69167 44.3895 12.5667 46.0395C13.2292 46.427 14.0042 46.6103 14.8583 46.6103C17.6625 46.6103 21.3312 44.6124 25.0417 41.1478C28.75 44.5916 32.4187 46.5687 35.2229 46.5687C36.0271 46.5837 36.821 46.3868 37.525 45.9978C40.3896 44.3478 41.0312 39.202 39.5542 32.7395C45.8729 30.7937 50 27.6541 50 24.352ZM36.7292 17.5541C36.3334 18.9163 35.8745 20.2594 35.3542 21.5791C34.5038 19.9216 33.5686 18.309 32.5521 16.7478C34.0021 16.9603 35.3951 17.2291 36.7313 17.5541M32.0646 28.4083C31.3014 29.7404 30.4819 31.0395 29.6083 32.302C26.5505 32.571 23.4751 32.5745 20.4167 32.3124C18.6628 29.8063 17.1286 27.1534 15.8312 24.3833C17.1256 21.6061 18.6533 18.9438 20.3979 16.4249C23.455 16.1553 26.5297 16.1511 29.5875 16.4124C30.4347 17.6277 31.2569 18.9194 32.0542 20.2874C32.8278 21.6221 33.5347 22.9735 34.175 24.3416C33.527 25.7252 32.823 27.0819 32.0646 28.4083ZM35.3542 27.0833C35.9042 28.4499 36.375 29.8145 36.7604 31.1395C35.4271 31.4666 34.0187 31.7416 32.5625 31.9541C33.5735 30.378 34.5053 28.7523 35.3542 27.0833ZM25.0208 37.9583C24.0708 36.9777 23.1264 35.8902 22.1875 34.6958C23.1042 34.7374 24.0417 34.7687 24.9896 34.7687C25.9493 34.7701 26.8937 34.7458 27.8229 34.6958C26.9062 35.8895 25.9583 36.9791 25.0208 37.9583ZM17.4375 31.9541C16.0327 31.7509 14.6382 31.4825 13.2583 31.1499C13.6354 29.8353 14.1042 28.4791 14.6333 27.1249C15.0521 27.9374 15.4917 28.7541 15.9708 29.5708C16.45 30.386 16.9389 31.1805 17.4375 31.9541ZM24.9687 10.7458C25.9187 11.7263 26.8632 12.8138 27.8021 14.0083C26.8854 13.9666 25.9479 13.9353 25 13.9353C24.0403 13.9339 23.0958 13.9583 22.1667 14.0083C23.0833 12.8145 24.0312 11.7249 24.9687 10.7458ZM17.4271 16.7499C16.4163 18.3227 15.4846 19.9448 14.6354 21.6103C14.1006 20.2821 13.6313 18.9284 13.2292 17.5541C14.5625 17.2374 15.9708 16.9624 17.4271 16.7499ZM8.20417 29.5083C4.59583 27.9708 2.2625 25.952 2.2625 24.352C2.2625 22.752 4.59583 20.7228 8.20417 19.1958C9.07917 18.8187 10.0375 18.4812 11.0271 18.1666C11.6083 20.1624 12.3729 22.2416 13.3187 24.3728C12.4248 26.377 11.6695 28.4402 11.0583 30.5478C10.0907 30.2478 9.13814 29.9008 8.20417 29.5083ZM13.6875 44.0708C12.3021 43.2791 11.7 40.2499 12.1687 36.3583C12.2812 35.3999 12.4646 34.3895 12.6896 33.3603C14.6854 33.8499 16.8667 34.227 19.1604 34.4728C20.4593 36.2634 21.8756 37.9657 23.4 39.5687C20.0771 42.6562 16.9583 44.3478 14.8375 44.3478C14.4377 44.3494 14.0433 44.2551 13.6875 44.0728M37.8625 36.3083C38.3417 40.202 37.75 43.2291 36.3729 44.0333C36.0687 44.2166 35.6708 44.2978 35.2021 44.2978C33.0917 44.2978 29.9625 42.6166 26.6396 39.5478C28.1582 37.9522 29.565 36.2537 30.85 34.4645C33.0335 34.2398 35.1991 33.8653 37.3312 33.3437C37.5687 34.3714 37.7458 35.3596 37.8625 36.3083ZM41.7854 29.5103C40.9104 29.8874 39.9521 30.2249 38.9625 30.5395C38.3394 28.4214 37.5738 26.348 36.6708 24.3333C37.6083 22.2145 38.3604 20.1458 38.9312 18.1583C39.9424 18.4735 40.8972 18.8201 41.7958 19.1978C45.4042 20.7353 47.7375 22.7541 47.7375 24.3541C47.7271 25.9541 45.3937 27.9833 41.7854 29.5103Z" fill="white"/>
<path d="M24.9896 29.0103C26.2251 29.0103 27.4099 28.5195 28.2835 27.6459C29.1571 26.7723 29.6479 25.5874 29.6479 24.3519C29.6479 23.1165 29.1571 21.9316 28.2835 21.058C27.4099 20.1844 26.2251 19.6936 24.9896 19.6936C23.7541 19.6936 22.5693 20.1844 21.6957 21.058C20.8221 21.9316 20.3313 23.1165 20.3313 24.3519C20.3313 25.5874 20.8221 26.7723 21.6957 27.6459C22.5693 28.5195 23.7541 29.0103 24.9896 29.0103Z" fill="white"/>
</g>
</svg>
