<svg width="50" height="30" viewBox="0 0 50 30" fill="none" xmlns="http://www.w3.org/2000/svg">
<path d="M41.25 8.78722C39.3739 8.1452 37.7183 6.98599 36.475 5.44379C35.1026 3.72775 33.3551 2.34772 31.3663 1.40929C29.3774 0.470849 27.1997 -0.00113482 25 0.0294412C22.0409 -0.179709 19.1115 0.731173 16.795 2.58069C14.4786 4.43021 12.9451 7.08266 12.5 10.0098C13.3767 8.5458 14.6961 7.39712 16.2685 6.72906C17.8408 6.061 19.585 5.90802 21.25 6.29213C23.1229 6.95302 24.7757 8.11894 26.025 9.6605C27.4049 11.3628 29.1557 12.7286 31.1442 13.6539C33.1326 14.5791 35.3064 15.0395 37.5 15C40.4591 15.2092 43.3885 14.2983 45.705 12.4488C48.0214 10.5992 49.5549 7.94678 50 5.01963C49.1392 6.50114 47.824 7.66718 46.2484 8.34559C44.6729 9.024 42.9205 9.17883 41.25 8.78722ZM8.75 21.2128C10.6261 21.8548 12.2817 23.014 13.525 24.5562C14.8974 26.2723 16.6449 27.6523 18.6337 28.5907C20.6226 29.5291 22.8003 30.0011 25 29.9706C27.9591 30.1797 30.8885 29.2688 33.205 27.4193C35.5214 25.5698 37.0549 22.9173 37.5 19.9902C36.6233 21.4542 35.3039 22.6029 33.7315 23.2709C32.1592 23.939 30.415 24.092 28.75 23.7079C26.8771 23.047 25.2243 21.8811 23.975 20.3395C22.5914 18.6414 20.8399 17.2786 18.8523 16.3537C16.8647 15.4289 14.6928 14.966 12.5 15C9.54091 14.7909 6.61146 15.7017 4.29501 17.5512C1.97857 19.4008 0.445105 22.0532 0 24.9804C0.860767 23.4989 2.17602 22.3328 3.75158 21.6544C5.32715 20.976 7.07952 20.8212 8.75 21.2128Z" fill="white"/>
</svg>
