<svg width="60" height="60" viewBox="0 0 60 60" fill="none" xmlns="http://www.w3.org/2000/svg">
<path d="M30 22.5C43.9575 22.5 52.5 27.3563 52.5 30C52.5 32.6437 43.9575 37.5 30 37.5C16.0425 37.5 7.5 32.6437 7.5 30C7.5 27.3563 16.0425 22.5 30 22.5ZM30 18.75C15.5025 18.75 3.75 23.7863 3.75 30C3.75 36.2137 15.5025 41.25 30 41.25C44.4975 41.25 56.25 36.2137 56.25 30C56.25 23.7863 44.4975 18.75 30 18.75Z" fill="#00BCD4"/>
<path d="M30 26.25C29.2583 26.25 28.5333 26.4699 27.9166 26.882C27.2999 27.294 26.8193 27.8797 26.5355 28.5649C26.2516 29.2502 26.1774 30.0042 26.3221 30.7316C26.4668 31.459 26.8239 32.1272 27.3484 32.6516C27.8728 33.1761 28.541 33.5333 29.2684 33.6779C29.9958 33.8226 30.7498 33.7484 31.4351 33.4645C32.1203 33.1807 32.706 32.7001 33.118 32.0834C33.5301 31.4667 33.75 30.7417 33.75 30C33.75 29.0054 33.3549 28.0516 32.6517 27.3484C31.9484 26.6451 30.9946 26.25 30 26.25Z" fill="#00BCD4"/>
<path d="M19.6087 10.3257C23.3906 10.3257 30.7406 16.2826 36.495 26.2501C43.4737 38.3382 43.5393 48.1632 41.2499 49.4851C40.9858 49.622 40.6902 49.6867 40.3931 49.6726C36.6112 49.6726 29.2593 43.7176 23.5049 33.7501C16.5262 21.6619 16.4606 11.8369 18.7499 10.5151C19.0146 10.3778 19.3109 10.3112 19.6087 10.3257ZM19.6068 6.57756C18.6512 6.56027 17.7083 6.79778 16.8749 7.26568C11.4937 10.3726 13.0087 23.0701 20.2574 35.6251C26.4149 46.2938 34.7324 53.4244 40.3949 53.4244C41.3502 53.4402 42.2925 53.2014 43.1249 52.7326C48.5062 49.6276 46.9912 36.9301 39.7424 24.3751C33.5849 13.7063 25.2674 6.57568 19.6049 6.57568L19.6068 6.57756Z" fill="#00BCD4"/>
<path d="M40.3931 10.3256C40.6903 10.3115 40.9859 10.3762 41.25 10.5131C43.5394 11.8368 43.4738 21.6618 36.495 33.75C30.7388 43.7175 23.3888 49.6743 19.6069 49.6743C19.3097 49.6885 19.0141 49.6238 18.75 49.4868C16.4606 48.1612 16.5263 38.3362 23.505 26.25C29.2613 16.2825 36.6113 10.3256 40.3931 10.3256ZM40.3931 6.5756C34.7306 6.5756 26.415 13.7081 20.2556 24.375C13.0106 36.93 11.4938 49.6275 16.875 52.7325C17.708 53.2017 18.651 53.4405 19.6069 53.4243C25.2694 53.4243 33.585 46.2918 39.7444 35.625C46.9894 23.07 48.5063 10.3725 43.125 7.26747C42.292 6.79826 41.3491 6.55945 40.3931 6.5756Z" fill="#00BCD4"/>
</svg>
